G04 Layer_Color=65535*
%FSLAX25Y25*%
%MOIN*%
G70*
G01*
G75*
%ADD10C,0.00394*%
%ADD22C,0.01000*%
%ADD23C,0.00787*%
%ADD24C,0.01000*%
D10*
X590500Y105000D02*
X590596Y104025D01*
X590881Y103087D01*
X591343Y102222D01*
X591964Y101464D01*
X592722Y100843D01*
X593587Y100381D01*
X594524Y100096D01*
X595500Y100000D01*
X695000D02*
X695975Y100096D01*
X696913Y100381D01*
X697778Y100843D01*
X698535Y101464D01*
X699157Y102222D01*
X699619Y103087D01*
X699904Y104025D01*
X700000Y105000D01*
Y165000D02*
X699904Y165975D01*
X699619Y166913D01*
X699157Y167778D01*
X698535Y168535D01*
X697778Y169157D01*
X696913Y169619D01*
X695975Y169904D01*
X695000Y170000D01*
X595500D02*
X594524Y169904D01*
X593587Y169619D01*
X592722Y169157D01*
X591964Y168535D01*
X591343Y167778D01*
X590881Y166913D01*
X590596Y165975D01*
X590500Y165000D01*
X595500Y100000D02*
X695000D01*
X700000Y105000D02*
Y165000D01*
X595500Y170000D02*
X695000D01*
X590500Y105000D02*
Y165000D01*
X590976Y117760D02*
X612157D01*
X612157Y112760D02*
Y117760D01*
X590976Y112760D02*
Y150240D01*
X612157Y130004D02*
Y132996D01*
X590976Y130004D02*
X612157D01*
X590976Y132996D02*
X612157D01*
Y145240D02*
Y150240D01*
X590976Y145240D02*
X612157D01*
X585976Y112760D02*
X612157D01*
X585976Y150240D02*
X612157D01*
X585976Y112760D02*
Y150240D01*
X555976Y144000D02*
X585976D01*
X555976Y119000D02*
Y144000D01*
Y119000D02*
X585976D01*
X677843Y147240D02*
X699024D01*
X677843Y147240D02*
Y152240D01*
X699024Y114760D02*
Y152240D01*
X677843Y132004D02*
Y134996D01*
X699024D01*
X677843Y132004D02*
X699024D01*
X677843Y114760D02*
Y119760D01*
X677843Y119760D02*
X699024D01*
X677843Y152240D02*
X704024D01*
X677843Y114760D02*
X704024D01*
Y152240D01*
Y121000D02*
X734024D01*
Y146000D01*
X704024D02*
X734024D01*
D22*
X657626Y127398D02*
D03*
D23*
X650146Y128972D02*
X659791D01*
X650146D02*
Y138126D01*
X659791D01*
Y128972D02*
Y138126D01*
X590976Y119689D02*
Y128547D01*
X585976Y112760D02*
X589716D01*
X555976Y119000D02*
X585976D01*
X555976D02*
Y144000D01*
X585976D01*
Y112760D02*
Y150240D01*
X589716D01*
X590976Y134453D02*
Y143311D01*
X699024Y136453D02*
Y145311D01*
X700283Y152240D02*
X704024D01*
Y146000D02*
X734024D01*
Y121000D02*
Y146000D01*
X704024Y121000D02*
X734024D01*
X704024Y114760D02*
Y152240D01*
X700283Y114760D02*
X704024D01*
X699024Y121689D02*
Y130547D01*
D24*
X654499Y147500D02*
X650500D01*
X654499Y151499D01*
Y152498D01*
X653499Y153498D01*
X651500D01*
X650500Y152498D01*
X656498Y147500D02*
Y148500D01*
X657498D01*
Y147500D01*
X656498D01*
X664496D02*
Y153498D01*
X661496Y150499D01*
X665495D01*
X671493Y152498D02*
X670494Y153498D01*
X668494D01*
X667494Y152498D01*
Y148500D01*
X668494Y147500D01*
X670494D01*
X671493Y148500D01*
Y150499D01*
X669494D01*
X594000Y159998D02*
Y155000D01*
X595000Y154000D01*
X596999D01*
X597999Y155000D01*
Y159998D01*
X599998D02*
Y154000D01*
Y156999D01*
X603997D01*
Y159998D01*
Y154000D01*
X609995Y159998D02*
X605996D01*
Y156999D01*
X607996D01*
X605996D01*
Y154000D01*
X681000Y156000D02*
Y159999D01*
X682999Y161998D01*
X684999Y159999D01*
Y156000D01*
Y158999D01*
X681000D01*
X686998Y156000D02*
Y161998D01*
X690997Y156000D01*
Y161998D01*
X692996D02*
X696995D01*
X694995D01*
Y156000D01*
X614999Y168498D02*
X613000D01*
X612000Y167498D01*
Y163500D01*
X613000Y162500D01*
X614999D01*
X615999Y163500D01*
Y167498D01*
X614999Y168498D01*
X617998D02*
Y162500D01*
Y165499D01*
X621997D01*
Y168498D01*
Y162500D01*
X627995D02*
X623996D01*
X627995Y166499D01*
Y167498D01*
X626995Y168498D01*
X624996D01*
X623996Y167498D01*
X633993Y168498D02*
X629994D01*
Y165499D01*
X631993D01*
X629994D01*
Y162500D01*
X635992Y168498D02*
X639991D01*
X637992D01*
Y162500D01*
X645989Y167498D02*
X644989Y168498D01*
X642990D01*
X641990Y167498D01*
Y163500D01*
X642990Y162500D01*
X644989D01*
X645989Y163500D01*
Y165499D01*
X643990D01*
X657985Y162500D02*
X653986D01*
X657985Y166499D01*
Y167498D01*
X656986Y168498D01*
X654986D01*
X653986Y167498D01*
X659984D02*
X660984Y168498D01*
X662984D01*
X663983Y167498D01*
Y163500D01*
X662984Y162500D01*
X660984D01*
X659984Y163500D01*
Y167498D01*
X665982Y162500D02*
X667982D01*
X666982D01*
Y168498D01*
X665982Y167498D01*
X670981Y163500D02*
X671981Y162500D01*
X673980D01*
X674980Y163500D01*
Y167498D01*
X673980Y168498D01*
X671981D01*
X670981Y167498D01*
Y166499D01*
X671981Y165499D01*
X674980D01*
X602500Y108998D02*
X606499D01*
Y107998D01*
X602500Y104000D01*
Y103000D01*
X608498Y107998D02*
X609498Y108998D01*
X611497D01*
X612497Y107998D01*
Y104000D01*
X611497Y103000D01*
X609498D01*
X608498Y104000D01*
Y107998D01*
X618495D02*
X617495Y108998D01*
X615496D01*
X614496Y107998D01*
Y104000D01*
X615496Y103000D01*
X617495D01*
X618495Y104000D01*
X620494Y103000D02*
Y108998D01*
X622494Y106999D01*
X624493Y108998D01*
Y103000D01*
X632490D02*
X636489Y106999D01*
X644486Y103000D02*
X646486D01*
X645486D01*
Y108998D01*
X644486Y107998D01*
X649485D02*
X650485Y108998D01*
X652484D01*
X653483Y107998D01*
Y106999D01*
X652484Y105999D01*
X651484D01*
X652484D01*
X653483Y104999D01*
Y104000D01*
X652484Y103000D01*
X650485D01*
X649485Y104000D01*
X659482Y107998D02*
X658482Y108998D01*
X656483D01*
X655483Y107998D01*
Y104000D01*
X656483Y103000D01*
X658482D01*
X659482Y104000D01*
X661481Y103000D02*
Y108998D01*
X663480Y106999D01*
X665480Y108998D01*
Y103000D01*
X673477Y108998D02*
Y103000D01*
X676476D01*
X677476Y104000D01*
Y107998D01*
X676476Y108998D01*
X673477D01*
X679475Y103000D02*
Y108998D01*
X682474D01*
X683474Y107998D01*
Y105999D01*
X682474Y104999D01*
X679475D01*
X685473Y108998D02*
X689472Y103000D01*
Y108998D02*
X685473Y103000D01*
M02*
