G04 Layer_Physical_Order=1*
G04 Layer_Color=255*
%FSLAX25Y25*%
%MOIN*%
G70*
G01*
G75*
%ADD10C,0.00394*%
%ADD11R,0.01968X0.01181*%
%ADD12R,0.03937X0.03937*%
%ADD13R,0.08661X0.04134*%
%ADD14R,0.04134X0.03937*%
%ADD15R,0.22047X0.03543*%
%ADD16R,0.22047X0.06496*%
%ADD17C,0.01181*%
%ADD18C,0.05905*%
%ADD19C,0.06693*%
%ADD20C,0.02756*%
%ADD21C,0.02362*%
G36*
X655500Y139000D02*
X654500Y138000D01*
Y137500D01*
X654000Y137000D01*
Y136000D01*
X653335D01*
X652917Y135583D01*
X649500Y139000D01*
X649500Y141500D01*
X655500D01*
Y139000D01*
D02*
G37*
G36*
X658941Y131059D02*
Y131292D01*
X659588D01*
X659701Y131018D01*
X660490Y129990D01*
X661518Y129201D01*
X662715Y128705D01*
X664000Y128536D01*
X694500D01*
X695785Y128705D01*
X696982Y129201D01*
X698010Y129990D01*
X698561Y130709D01*
X699024D01*
X699414Y130786D01*
X699500Y130844D01*
X700000Y130577D01*
Y121660D01*
X699500Y121392D01*
X699414Y121450D01*
X699024Y121528D01*
X688500D01*
Y117260D01*
Y112992D01*
X699024D01*
X699414Y113070D01*
X699500Y113127D01*
X700000Y112860D01*
Y104508D01*
X699808Y103542D01*
X699431Y102632D01*
X698884Y101813D01*
X698187Y101116D01*
X697368Y100569D01*
X696458Y100192D01*
X695493Y100000D01*
X595008D01*
X594042Y100192D01*
X593132Y100569D01*
X592313Y101116D01*
X591616Y101813D01*
X591069Y102632D01*
X590692Y103542D01*
X590500Y104508D01*
Y110577D01*
X590976Y110992D01*
X601500D01*
Y115260D01*
Y119527D01*
X590976D01*
X590500Y119942D01*
Y127913D01*
X590969Y128369D01*
X591201Y128363D01*
X591271Y128271D01*
X592217Y127545D01*
X593318Y127089D01*
X594500Y126933D01*
X646000D01*
X647182Y127089D01*
X648283Y127545D01*
X649229Y128271D01*
X649886Y129127D01*
X653000D01*
X653845Y129295D01*
X654518Y129745D01*
X655500Y131000D01*
X656000Y131500D01*
Y132000D01*
X658000D01*
X658941Y131059D01*
D02*
G37*
G36*
X696458Y169808D02*
X697368Y169431D01*
X698187Y168884D01*
X698884Y168187D01*
X699431Y167368D01*
X699808Y166458D01*
X700000Y165492D01*
Y154140D01*
X699500Y153873D01*
X699414Y153930D01*
X699024Y154008D01*
X688500D01*
Y149740D01*
Y145473D01*
X699024D01*
X699414Y145550D01*
X699500Y145608D01*
X700000Y145341D01*
Y136423D01*
X699500Y136156D01*
X699414Y136214D01*
X699024Y136291D01*
X698561D01*
X698010Y137010D01*
X696982Y137799D01*
X695785Y138295D01*
X694500Y138464D01*
X664000D01*
X662715Y138295D01*
X661518Y137799D01*
X660490Y137010D01*
X659701Y135982D01*
X659588Y135708D01*
X658708D01*
X658000Y135000D01*
X656000D01*
Y135500D01*
Y136000D01*
X656000Y136435D01*
X655931Y137287D01*
X656000Y136000D01*
X655783Y136217D01*
Y137503D01*
X655659Y137717D01*
X655729Y137771D01*
X655783Y137841D01*
D01*
D01*
D01*
X656221Y138279D01*
X656442Y138610D01*
X656471Y138756D01*
X656911Y139818D01*
X657067Y141000D01*
Y145000D01*
X656911Y146182D01*
X656455Y147283D01*
X655729Y148229D01*
X655729Y148229D01*
X648729Y155229D01*
X647783Y155955D01*
X646682Y156411D01*
X645500Y156567D01*
X639882D01*
X638700Y156411D01*
X638266Y156231D01*
X637850Y156509D01*
Y157307D01*
X633000D01*
Y154721D01*
X635711D01*
X635901Y154221D01*
X635471Y153182D01*
X635315Y152000D01*
X635471Y150818D01*
X635901Y149779D01*
X635711Y149279D01*
X633000D01*
Y146693D01*
X637850D01*
Y147491D01*
X638266Y147769D01*
X638700Y147589D01*
X639882Y147433D01*
X643608D01*
X647933Y143108D01*
Y141000D01*
X648089Y139818D01*
X648529Y138756D01*
X648558Y138610D01*
X648779Y138279D01*
X649217Y137841D01*
X649271Y137771D01*
X649341Y137717D01*
X650478Y136580D01*
X650684Y136165D01*
X650684D01*
X650860Y135279D01*
X650996Y135075D01*
Y135075D01*
X651065Y134729D01*
X651271D01*
X652000Y134000D01*
X653500D01*
Y133000D01*
X650738D01*
X650196Y133542D01*
X650055D01*
X649955Y133783D01*
X649229Y134729D01*
X648283Y135455D01*
X647182Y135911D01*
X646000Y136067D01*
X594500D01*
X593318Y135911D01*
X592217Y135455D01*
X591271Y134729D01*
X591201Y134637D01*
X590969Y134631D01*
X590500Y135087D01*
Y143058D01*
X590976Y143473D01*
X601500D01*
Y147740D01*
Y152008D01*
X590976D01*
X590500Y152423D01*
Y165492D01*
X590692Y166458D01*
X591069Y167368D01*
X591616Y168187D01*
X592313Y168884D01*
X593132Y169431D01*
X594042Y169808D01*
X595008Y170000D01*
X695493D01*
X696458Y169808D01*
D02*
G37*
%LPC*%
G36*
X687500Y116760D02*
X675957D01*
Y114012D01*
X676034Y113622D01*
X676255Y113291D01*
X676586Y113070D01*
X676976Y112992D01*
X687500D01*
Y116760D01*
D02*
G37*
G36*
X614043Y114760D02*
X602500D01*
Y110992D01*
X613024D01*
X613414Y111070D01*
X613745Y111291D01*
X613966Y111622D01*
X614043Y112012D01*
Y114760D01*
D02*
G37*
G36*
X687500Y121528D02*
X676976D01*
X676586Y121450D01*
X676255Y121229D01*
X676034Y120898D01*
X675957Y120508D01*
Y117760D01*
X687500D01*
Y121528D01*
D02*
G37*
G36*
X613024Y119527D02*
X602500D01*
Y115760D01*
X614043D01*
Y118508D01*
X613966Y118898D01*
X613745Y119229D01*
X613414Y119450D01*
X613024Y119527D01*
D02*
G37*
G36*
X614043Y147240D02*
X602500D01*
Y143473D01*
X613024D01*
X613414Y143550D01*
X613745Y143771D01*
X613966Y144102D01*
X614043Y144492D01*
Y147240D01*
D02*
G37*
G36*
X637850Y145693D02*
X633000D01*
Y143106D01*
X636831D01*
X637221Y143184D01*
X637552Y143405D01*
X637773Y143736D01*
X637850Y144126D01*
Y145693D01*
D02*
G37*
G36*
X632000D02*
X627150D01*
Y144126D01*
X627227Y143736D01*
X627448Y143405D01*
X627779Y143184D01*
X628169Y143106D01*
X632000D01*
Y145693D01*
D02*
G37*
G36*
Y157307D02*
X627150D01*
Y155740D01*
X627200Y155488D01*
X627095Y155304D01*
Y152500D01*
X629583D01*
Y153969D01*
X629532Y154221D01*
X629756Y154612D01*
X629865Y154721D01*
X632000D01*
Y157307D01*
D02*
G37*
G36*
X626094Y154988D02*
X624626D01*
X624236Y154911D01*
X623905Y154690D01*
X623684Y154359D01*
X623606Y153969D01*
Y152500D01*
X626094D01*
Y154988D01*
D02*
G37*
G36*
X636831Y160894D02*
X633000D01*
Y158307D01*
X637850D01*
Y159874D01*
X637773Y160264D01*
X637552Y160595D01*
X637221Y160816D01*
X636831Y160894D01*
D02*
G37*
G36*
X632000D02*
X628169D01*
X627779Y160816D01*
X627448Y160595D01*
X627227Y160264D01*
X627150Y159874D01*
Y158307D01*
X632000D01*
Y160894D01*
D02*
G37*
G36*
X687500Y154008D02*
X676976D01*
X676586Y153930D01*
X676255Y153709D01*
X676034Y153378D01*
X675957Y152988D01*
Y150240D01*
X687500D01*
Y154008D01*
D02*
G37*
G36*
X629583Y151500D02*
X627095D01*
Y148696D01*
X627200Y148512D01*
X627150Y148260D01*
Y146693D01*
X632000D01*
Y149279D01*
X629865D01*
X629756Y149388D01*
X629532Y149779D01*
X629583Y150031D01*
Y151500D01*
D02*
G37*
G36*
X687500Y149240D02*
X675957D01*
Y146492D01*
X676034Y146102D01*
X676255Y145771D01*
X676586Y145550D01*
X676976Y145473D01*
X687500D01*
Y149240D01*
D02*
G37*
G36*
X626094Y151500D02*
X623606D01*
Y150031D01*
X623684Y149641D01*
X623905Y149311D01*
X624236Y149090D01*
X624626Y149012D01*
X626094D01*
Y151500D01*
D02*
G37*
G36*
X613024Y152008D02*
X602500D01*
Y148240D01*
X614043D01*
Y150988D01*
X613966Y151378D01*
X613745Y151709D01*
X613414Y151930D01*
X613024Y152008D01*
D02*
G37*
%LPD*%
D10*
X652500Y136165D02*
X653000Y135665D01*
X648335Y131335D02*
X648000Y131000D01*
X652500Y136165D02*
Y141000D01*
X590500Y105000D02*
X590596Y104025D01*
X590881Y103087D01*
X591343Y102222D01*
X591964Y101464D01*
X592722Y100843D01*
X593587Y100381D01*
X594524Y100096D01*
X595500Y100000D01*
X695000D02*
X695975Y100096D01*
X696913Y100381D01*
X697778Y100843D01*
X698535Y101464D01*
X699157Y102222D01*
X699619Y103087D01*
X699904Y104025D01*
X700000Y105000D01*
Y165000D02*
X699904Y165975D01*
X699619Y166913D01*
X699157Y167778D01*
X698535Y168535D01*
X697778Y169157D01*
X696913Y169619D01*
X695975Y169904D01*
X695000Y170000D01*
X595500D02*
X594524Y169904D01*
X593587Y169619D01*
X592722Y169157D01*
X591964Y168535D01*
X591343Y167778D01*
X590881Y166913D01*
X590596Y165975D01*
X590500Y165000D01*
X595500Y100000D02*
X695000D01*
X700000Y105000D02*
Y165000D01*
X595500Y170000D02*
X695000D01*
X590500Y105000D02*
Y165000D01*
X590976Y117760D02*
X612157D01*
X612157Y112760D02*
Y117760D01*
X590976Y112760D02*
Y150240D01*
X612157Y130004D02*
Y132996D01*
X590976Y130004D02*
X612157D01*
X590976Y132996D02*
X612157D01*
Y145240D02*
Y150240D01*
X590976Y145240D02*
X612157D01*
X585976Y112760D02*
X612157D01*
X585976Y150240D02*
X612157D01*
X585976Y112760D02*
Y150240D01*
X555976Y144000D02*
X585976D01*
X555976Y119000D02*
Y144000D01*
Y119000D02*
X585976D01*
X677843Y147240D02*
X699024D01*
X677843Y147240D02*
Y152240D01*
X699024Y114760D02*
Y152240D01*
X677843Y132004D02*
Y134996D01*
X699024D01*
X677843Y132004D02*
X699024D01*
X677843Y114760D02*
Y119760D01*
X677843Y119760D02*
X699024D01*
X677843Y152240D02*
X704024D01*
X677843Y114760D02*
X704024D01*
Y152240D01*
Y121000D02*
X734024D01*
Y146000D01*
X704024D02*
X734024D01*
D11*
X653000Y131335D02*
D03*
Y133500D02*
D03*
Y135665D02*
D03*
X656937D02*
D03*
Y133500D02*
D03*
Y131335D02*
D03*
D12*
X626594Y152000D02*
D03*
D13*
X632500Y146193D02*
D03*
Y157807D02*
D03*
D14*
X639882Y152000D02*
D03*
D15*
X602000Y131500D02*
D03*
X688000Y133500D02*
D03*
D16*
X602000Y147740D02*
D03*
Y115260D02*
D03*
X688000Y117260D02*
D03*
Y149740D02*
D03*
D17*
X656937Y133500D02*
X664000D01*
X648335Y131335D02*
X653000D01*
D18*
X652500Y141000D02*
Y145000D01*
X645500Y152000D02*
X652500Y145000D01*
X639882Y152000D02*
X645500D01*
X594500Y131500D02*
X602000D01*
X646000D01*
D19*
X688000Y133500D02*
X694500D01*
X664000D02*
X688000D01*
D20*
X658500Y139000D02*
D03*
X645500Y138500D02*
D03*
X648500Y136000D02*
D03*
X651000Y127000D02*
D03*
X660000Y124500D02*
D03*
X655000Y126000D02*
D03*
X661000Y142500D02*
D03*
X640000Y143000D02*
D03*
X624000Y146000D02*
D03*
X621000Y152000D02*
D03*
X624500Y158500D02*
D03*
X634500Y163500D02*
D03*
X673000Y117000D02*
D03*
X673500Y150000D02*
D03*
X617000Y115500D02*
D03*
X617500Y148000D02*
D03*
X640260Y136903D02*
D03*
X636504D02*
D03*
X632748D02*
D03*
X628992D02*
D03*
X625236D02*
D03*
X621481D02*
D03*
X617725D02*
D03*
X613969D02*
D03*
X610213D02*
D03*
X606457D02*
D03*
X602701D02*
D03*
X598945D02*
D03*
X595189D02*
D03*
X594797Y126097D02*
D03*
X598553D02*
D03*
X602308D02*
D03*
X606064D02*
D03*
X609820D02*
D03*
X613576D02*
D03*
X617332D02*
D03*
X621088D02*
D03*
X624844D02*
D03*
X628600D02*
D03*
X632356D02*
D03*
X636112D02*
D03*
X639867D02*
D03*
X643623D02*
D03*
X647373Y126316D02*
D03*
X640693Y157403D02*
D03*
X641289Y146597D02*
D03*
X644741Y145118D02*
D03*
X647097Y142193D02*
D03*
X657903Y144267D02*
D03*
X657025Y147919D02*
D03*
X654469Y150671D02*
D03*
X651814Y153327D02*
D03*
X649139Y155964D02*
D03*
X645657Y157372D02*
D03*
X689748Y139300D02*
D03*
X685992D02*
D03*
X682236D02*
D03*
X678480D02*
D03*
X674724D02*
D03*
X670969D02*
D03*
X667213D02*
D03*
X663457Y139249D02*
D03*
X661777Y128174D02*
D03*
X665503Y127700D02*
D03*
X669259D02*
D03*
X673015D02*
D03*
X676771D02*
D03*
X680527D02*
D03*
X684283D02*
D03*
X688039D02*
D03*
X691794D02*
D03*
X695549Y127817D02*
D03*
X694657Y139269D02*
D03*
D21*
X685039Y106299D02*
D03*
X673228Y153543D02*
D03*
Y106299D02*
D03*
X661417Y153543D02*
D03*
X667323Y118110D02*
D03*
X661417Y106299D02*
D03*
X655512Y118110D02*
D03*
X649606Y106299D02*
D03*
X643701Y118110D02*
D03*
X637795Y106299D02*
D03*
X631890Y141732D02*
D03*
Y118110D02*
D03*
X625984Y106299D02*
D03*
X614173Y153543D02*
D03*
X620079Y141732D02*
D03*
Y118110D02*
D03*
X614173Y106299D02*
D03*
X602362Y153543D02*
D03*
X608267Y141732D02*
D03*
X602362Y106299D02*
D03*
M02*
