G04 Layer_Color=16711935*
%FSLAX25Y25*%
%MOIN*%
G70*
G01*
G75*
%ADD10C,0.00394*%
%ADD24C,0.01000*%
%ADD33C,0.00600*%
D10*
X590500Y105000D02*
X590596Y104025D01*
X590881Y103087D01*
X591343Y102222D01*
X591964Y101464D01*
X592722Y100843D01*
X593587Y100381D01*
X594524Y100096D01*
X595500Y100000D01*
X695000D02*
X695975Y100096D01*
X696913Y100381D01*
X697778Y100843D01*
X698535Y101464D01*
X699157Y102222D01*
X699619Y103087D01*
X699904Y104025D01*
X700000Y105000D01*
Y165000D02*
X699904Y165975D01*
X699619Y166913D01*
X699157Y167778D01*
X698535Y168535D01*
X697778Y169157D01*
X696913Y169619D01*
X695975Y169904D01*
X695000Y170000D01*
X595500D02*
X594524Y169904D01*
X593587Y169619D01*
X592722Y169157D01*
X591964Y168535D01*
X591343Y167778D01*
X590881Y166913D01*
X590596Y165975D01*
X590500Y165000D01*
X595500Y100000D02*
X695000D01*
X700000Y105000D02*
Y165000D01*
X595500Y170000D02*
X695000D01*
X590500Y105000D02*
Y165000D01*
X590976Y117760D02*
X612157D01*
X612157Y112760D02*
Y117760D01*
X590976Y112760D02*
Y150240D01*
X612157Y130004D02*
Y132996D01*
X590976Y130004D02*
X612157D01*
X590976Y132996D02*
X612157D01*
Y145240D02*
Y150240D01*
X590976Y145240D02*
X612157D01*
X585976Y112760D02*
X612157D01*
X585976Y150240D02*
X612157D01*
X585976Y112760D02*
Y150240D01*
X555976Y144000D02*
X585976D01*
X555976Y119000D02*
Y144000D01*
Y119000D02*
X585976D01*
X677843Y147240D02*
X699024D01*
X677843Y147240D02*
Y152240D01*
X699024Y114760D02*
Y152240D01*
X677843Y132004D02*
Y134996D01*
X699024D01*
X677843Y132004D02*
X699024D01*
X677843Y114760D02*
Y119760D01*
X677843Y119760D02*
X699024D01*
X677843Y152240D02*
X704024D01*
X677843Y114760D02*
X704024D01*
Y152240D01*
Y121000D02*
X734024D01*
Y146000D01*
X704024D02*
X734024D01*
D24*
X696197Y100000D02*
X744000D01*
X696197Y170000D02*
X744000D01*
X743000Y100000D02*
Y118304D01*
Y148496D02*
Y170000D01*
Y100000D02*
X745000Y106000D01*
X741000D02*
X743000Y100000D01*
X741000Y164000D02*
X743000Y170000D01*
X745000Y164000D01*
X700000Y79500D02*
Y103803D01*
X590500Y79500D02*
Y103803D01*
X658246Y80500D02*
X700000D01*
X590500D02*
X629054D01*
X694000Y82500D02*
X700000Y80500D01*
X694000Y78500D02*
X700000Y80500D01*
X590500D02*
X596500Y78500D01*
X590500Y80500D02*
X596500Y82500D01*
D33*
X747599Y119904D02*
Y121904D01*
Y120904D01*
X741601D01*
X742600Y119904D01*
X741601Y124903D02*
Y128901D01*
X742600D01*
X746599Y124903D01*
X747599D01*
X748598Y131901D02*
X747599Y132900D01*
X746599D01*
Y131901D01*
X747599D01*
Y132900D01*
X748598Y131901D01*
X749598Y130901D01*
X741601Y136899D02*
Y140898D01*
X742600D01*
X746599Y136899D01*
X747599D01*
X742600Y142897D02*
X741601Y143897D01*
Y145896D01*
X742600Y146896D01*
X743600D01*
X744600Y145896D01*
X745599Y146896D01*
X746599D01*
X747599Y145896D01*
Y143897D01*
X746599Y142897D01*
X745599D01*
X744600Y143897D01*
X743600Y142897D01*
X742600D01*
X744600Y143897D02*
Y145896D01*
X634653Y75901D02*
X630654D01*
X634653Y79900D01*
Y80900D01*
X633653Y81899D01*
X631654D01*
X630654Y80900D01*
X636652Y81899D02*
X640651D01*
Y80900D01*
X636652Y76901D01*
Y75901D01*
X643650Y74902D02*
X644650Y75901D01*
Y76901D01*
X643650D01*
Y75901D01*
X644650D01*
X643650Y74902D01*
X642650Y73902D01*
X648648Y80900D02*
X649648Y81899D01*
X651647D01*
X652647Y80900D01*
Y79900D01*
X651647Y78900D01*
X652647Y77901D01*
Y76901D01*
X651647Y75901D01*
X649648D01*
X648648Y76901D01*
Y77901D01*
X649648Y78900D01*
X648648Y79900D01*
Y80900D01*
X649648Y78900D02*
X651647D01*
X654646Y75901D02*
X656646D01*
X655646D01*
Y81899D01*
X654646Y80900D01*
M02*
