G04 Layer_Color=8388736*
%FSLAX25Y25*%
%MOIN*%
G70*
G01*
G75*
%ADD10C,0.00394*%
G36*
X736435Y139029D02*
X736467Y139023D01*
X736502Y139015D01*
X736540Y139000D01*
X736583Y138983D01*
X736624Y138959D01*
X736630Y138956D01*
X736641Y138945D01*
X736662Y138930D01*
X736685Y138907D01*
X736711Y138875D01*
X736740Y138840D01*
X736766Y138799D01*
X736793Y138750D01*
Y138747D01*
X736796Y138744D01*
X736801Y138726D01*
X736810Y138697D01*
X736822Y138660D01*
X736833Y138613D01*
X736842Y138561D01*
X736848Y138505D01*
X736851Y138441D01*
Y138438D01*
Y138430D01*
Y138415D01*
X736848Y138395D01*
Y138372D01*
X736845Y138342D01*
X736842Y138313D01*
X736836Y138281D01*
X736822Y138212D01*
X736801Y138139D01*
X736772Y138069D01*
X736755Y138037D01*
X736734Y138008D01*
X736732Y138005D01*
X736729Y138002D01*
X736711Y137985D01*
X736685Y137958D01*
X736644Y137929D01*
X736595Y137897D01*
X736537Y137865D01*
X736464Y137839D01*
X736382Y137819D01*
X736345Y138063D01*
X736350D01*
X736368Y138069D01*
X736397Y138075D01*
X736429Y138086D01*
X736464Y138101D01*
X736502Y138118D01*
X736540Y138145D01*
X736572Y138177D01*
X736575Y138182D01*
X736583Y138194D01*
X736595Y138217D01*
X736609Y138246D01*
X736624Y138284D01*
X736636Y138328D01*
X736644Y138380D01*
X736647Y138441D01*
Y138444D01*
Y138450D01*
Y138459D01*
Y138470D01*
X736644Y138499D01*
X736638Y138537D01*
X736630Y138578D01*
X736618Y138622D01*
X736604Y138660D01*
X736580Y138695D01*
X736577Y138697D01*
X736569Y138709D01*
X736554Y138721D01*
X736534Y138738D01*
X736510Y138753D01*
X736481Y138767D01*
X736452Y138776D01*
X736417Y138779D01*
X736403D01*
X736388Y138776D01*
X736368Y138770D01*
X736347Y138761D01*
X736327Y138747D01*
X736304Y138729D01*
X736286Y138703D01*
X736283Y138700D01*
X736281Y138692D01*
X736272Y138677D01*
X736263Y138654D01*
X736251Y138619D01*
X736243Y138599D01*
X736237Y138575D01*
X736228Y138549D01*
X736219Y138520D01*
X736211Y138488D01*
X736202Y138450D01*
Y138447D01*
X736199Y138438D01*
X736196Y138424D01*
X736190Y138406D01*
X736185Y138383D01*
X736176Y138357D01*
X736161Y138302D01*
X736141Y138238D01*
X736123Y138177D01*
X736103Y138118D01*
X736091Y138092D01*
X736083Y138072D01*
X736080Y138066D01*
X736074Y138054D01*
X736062Y138037D01*
X736048Y138014D01*
X736027Y137987D01*
X736004Y137961D01*
X735978Y137935D01*
X735946Y137912D01*
X735943Y137909D01*
X735931Y137903D01*
X735911Y137894D01*
X735888Y137885D01*
X735859Y137877D01*
X735824Y137868D01*
X735789Y137862D01*
X735748Y137859D01*
X735731D01*
X735713Y137862D01*
X735687Y137865D01*
X735661Y137871D01*
X735629Y137877D01*
X735600Y137888D01*
X735568Y137903D01*
X735565Y137906D01*
X735553Y137912D01*
X735538Y137920D01*
X735518Y137935D01*
X735498Y137952D01*
X735472Y137973D01*
X735448Y137996D01*
X735428Y138025D01*
X735425Y138028D01*
X735422Y138037D01*
X735413Y138049D01*
X735405Y138066D01*
X735393Y138089D01*
X735381Y138115D01*
X735370Y138147D01*
X735358Y138182D01*
X735355Y138188D01*
X735352Y138200D01*
X735346Y138220D01*
X735341Y138246D01*
X735335Y138278D01*
X735332Y138313D01*
X735326Y138354D01*
Y138395D01*
Y138398D01*
Y138403D01*
Y138412D01*
Y138424D01*
X735329Y138456D01*
X735332Y138499D01*
X735338Y138546D01*
X735349Y138596D01*
X735361Y138648D01*
X735378Y138697D01*
Y138700D01*
X735381Y138703D01*
X735387Y138718D01*
X735399Y138741D01*
X735413Y138770D01*
X735434Y138802D01*
X735457Y138834D01*
X735483Y138863D01*
X735512Y138890D01*
X735515Y138892D01*
X735527Y138898D01*
X735547Y138910D01*
X735570Y138924D01*
X735605Y138939D01*
X735643Y138953D01*
X735687Y138965D01*
X735736Y138977D01*
X735768Y138735D01*
X735763D01*
X735751Y138732D01*
X735731Y138726D01*
X735704Y138718D01*
X735678Y138703D01*
X735649Y138686D01*
X735620Y138665D01*
X735594Y138636D01*
X735591Y138633D01*
X735585Y138622D01*
X735573Y138604D01*
X735562Y138578D01*
X735550Y138549D01*
X735538Y138511D01*
X735533Y138465D01*
X735530Y138415D01*
Y138412D01*
Y138406D01*
Y138398D01*
Y138386D01*
X735533Y138357D01*
X735536Y138319D01*
X735544Y138281D01*
X735553Y138241D01*
X735568Y138203D01*
X735588Y138171D01*
X735591Y138168D01*
X735597Y138159D01*
X735608Y138147D01*
X735626Y138136D01*
X735643Y138121D01*
X735667Y138110D01*
X735693Y138101D01*
X735719Y138098D01*
X735728D01*
X735736Y138101D01*
X735748D01*
X735777Y138110D01*
X735806Y138127D01*
X735809Y138130D01*
X735812Y138133D01*
X735821Y138139D01*
X735829Y138150D01*
X735838Y138162D01*
X735850Y138179D01*
X735859Y138200D01*
X735870Y138223D01*
Y138226D01*
X735873Y138232D01*
X735876Y138243D01*
X735885Y138264D01*
X735893Y138293D01*
X735902Y138331D01*
X735911Y138354D01*
X735917Y138380D01*
X735925Y138409D01*
X735934Y138441D01*
Y138444D01*
X735937Y138453D01*
X735940Y138468D01*
X735946Y138485D01*
X735952Y138505D01*
X735957Y138532D01*
X735975Y138587D01*
X735992Y138648D01*
X736013Y138709D01*
X736033Y138764D01*
X736042Y138788D01*
X736051Y138808D01*
X736054Y138814D01*
X736059Y138826D01*
X736068Y138843D01*
X736083Y138869D01*
X736100Y138895D01*
X736123Y138921D01*
X736150Y138948D01*
X736179Y138971D01*
X736182Y138974D01*
X736193Y138980D01*
X736211Y138991D01*
X736237Y139003D01*
X736269Y139012D01*
X736304Y139023D01*
X736345Y139029D01*
X736391Y139032D01*
X736412D01*
X736435Y139029D01*
D02*
G37*
G36*
X736819Y140723D02*
X735245D01*
X735248Y140720D01*
X735259Y140705D01*
X735277Y140688D01*
X735297Y140659D01*
X735323Y140627D01*
X735352Y140586D01*
X735384Y140540D01*
X735416Y140487D01*
Y140484D01*
X735419Y140481D01*
X735431Y140464D01*
X735445Y140435D01*
X735463Y140400D01*
X735483Y140359D01*
X735504Y140315D01*
X735524Y140272D01*
X735541Y140228D01*
X735303D01*
Y140231D01*
X735297Y140237D01*
X735294Y140249D01*
X735285Y140263D01*
X735277Y140280D01*
X735265Y140301D01*
X735236Y140350D01*
X735204Y140409D01*
X735163Y140467D01*
X735117Y140528D01*
X735067Y140589D01*
X735064Y140592D01*
X735061Y140595D01*
X735052Y140603D01*
X735044Y140615D01*
X735015Y140641D01*
X734980Y140676D01*
X734939Y140711D01*
X734893Y140749D01*
X734846Y140781D01*
X734796Y140810D01*
Y140970D01*
X736819D01*
Y140723D01*
D02*
G37*
G36*
Y141744D02*
X736537D01*
Y142026D01*
X736819D01*
Y141744D01*
D02*
G37*
G36*
X736435Y137621D02*
X736467Y137615D01*
X736502Y137606D01*
X736540Y137592D01*
X736583Y137574D01*
X736624Y137551D01*
X736630Y137548D01*
X736641Y137536D01*
X736662Y137522D01*
X736685Y137498D01*
X736711Y137467D01*
X736740Y137432D01*
X736766Y137391D01*
X736793Y137341D01*
Y137338D01*
X736796Y137336D01*
X736801Y137318D01*
X736810Y137289D01*
X736822Y137251D01*
X736833Y137205D01*
X736842Y137152D01*
X736848Y137097D01*
X736851Y137033D01*
Y137030D01*
Y137021D01*
Y137007D01*
X736848Y136986D01*
Y136963D01*
X736845Y136934D01*
X736842Y136905D01*
X736836Y136873D01*
X736822Y136803D01*
X736801Y136730D01*
X736772Y136660D01*
X736755Y136628D01*
X736734Y136599D01*
X736732Y136596D01*
X736729Y136593D01*
X736711Y136576D01*
X736685Y136550D01*
X736644Y136521D01*
X736595Y136489D01*
X736537Y136457D01*
X736464Y136431D01*
X736382Y136410D01*
X736345Y136655D01*
X736350D01*
X736368Y136660D01*
X736397Y136666D01*
X736429Y136678D01*
X736464Y136692D01*
X736502Y136710D01*
X736540Y136736D01*
X736572Y136768D01*
X736575Y136774D01*
X736583Y136786D01*
X736595Y136809D01*
X736609Y136838D01*
X736624Y136876D01*
X736636Y136919D01*
X736644Y136972D01*
X736647Y137033D01*
Y137036D01*
Y137042D01*
Y137050D01*
Y137062D01*
X736644Y137091D01*
X736638Y137129D01*
X736630Y137170D01*
X736618Y137213D01*
X736604Y137251D01*
X736580Y137286D01*
X736577Y137289D01*
X736569Y137301D01*
X736554Y137312D01*
X736534Y137330D01*
X736510Y137344D01*
X736481Y137359D01*
X736452Y137368D01*
X736417Y137371D01*
X736403D01*
X736388Y137368D01*
X736368Y137362D01*
X736347Y137353D01*
X736327Y137338D01*
X736304Y137321D01*
X736286Y137295D01*
X736283Y137292D01*
X736281Y137283D01*
X736272Y137269D01*
X736263Y137245D01*
X736251Y137210D01*
X736243Y137190D01*
X736237Y137167D01*
X736228Y137141D01*
X736219Y137111D01*
X736211Y137080D01*
X736202Y137042D01*
Y137039D01*
X736199Y137030D01*
X736196Y137015D01*
X736190Y136998D01*
X736185Y136975D01*
X736176Y136949D01*
X736161Y136893D01*
X736141Y136829D01*
X736123Y136768D01*
X736103Y136710D01*
X736091Y136684D01*
X736083Y136663D01*
X736080Y136658D01*
X736074Y136646D01*
X736062Y136628D01*
X736048Y136605D01*
X736027Y136579D01*
X736004Y136553D01*
X735978Y136527D01*
X735946Y136503D01*
X735943Y136500D01*
X735931Y136495D01*
X735911Y136486D01*
X735888Y136477D01*
X735859Y136468D01*
X735824Y136460D01*
X735789Y136454D01*
X735748Y136451D01*
X735731D01*
X735713Y136454D01*
X735687Y136457D01*
X735661Y136463D01*
X735629Y136468D01*
X735600Y136480D01*
X735568Y136495D01*
X735565Y136497D01*
X735553Y136503D01*
X735538Y136512D01*
X735518Y136527D01*
X735498Y136544D01*
X735472Y136564D01*
X735448Y136588D01*
X735428Y136617D01*
X735425Y136620D01*
X735422Y136628D01*
X735413Y136640D01*
X735405Y136658D01*
X735393Y136681D01*
X735381Y136707D01*
X735370Y136739D01*
X735358Y136774D01*
X735355Y136780D01*
X735352Y136791D01*
X735346Y136812D01*
X735341Y136838D01*
X735335Y136870D01*
X735332Y136905D01*
X735326Y136946D01*
Y136986D01*
Y136989D01*
Y136995D01*
Y137004D01*
Y137015D01*
X735329Y137048D01*
X735332Y137091D01*
X735338Y137138D01*
X735349Y137187D01*
X735361Y137240D01*
X735378Y137289D01*
Y137292D01*
X735381Y137295D01*
X735387Y137309D01*
X735399Y137333D01*
X735413Y137362D01*
X735434Y137394D01*
X735457Y137426D01*
X735483Y137455D01*
X735512Y137481D01*
X735515Y137484D01*
X735527Y137490D01*
X735547Y137501D01*
X735570Y137516D01*
X735605Y137531D01*
X735643Y137545D01*
X735687Y137557D01*
X735736Y137568D01*
X735768Y137327D01*
X735763D01*
X735751Y137324D01*
X735731Y137318D01*
X735704Y137309D01*
X735678Y137295D01*
X735649Y137277D01*
X735620Y137257D01*
X735594Y137228D01*
X735591Y137225D01*
X735585Y137213D01*
X735573Y137196D01*
X735562Y137170D01*
X735550Y137141D01*
X735538Y137103D01*
X735533Y137056D01*
X735530Y137007D01*
Y137004D01*
Y136998D01*
Y136989D01*
Y136978D01*
X735533Y136949D01*
X735536Y136911D01*
X735544Y136873D01*
X735553Y136832D01*
X735568Y136794D01*
X735588Y136762D01*
X735591Y136759D01*
X735597Y136751D01*
X735608Y136739D01*
X735626Y136727D01*
X735643Y136713D01*
X735667Y136701D01*
X735693Y136692D01*
X735719Y136689D01*
X735728D01*
X735736Y136692D01*
X735748D01*
X735777Y136701D01*
X735806Y136719D01*
X735809Y136722D01*
X735812Y136724D01*
X735821Y136730D01*
X735829Y136742D01*
X735838Y136753D01*
X735850Y136771D01*
X735859Y136791D01*
X735870Y136815D01*
Y136818D01*
X735873Y136823D01*
X735876Y136835D01*
X735885Y136855D01*
X735893Y136884D01*
X735902Y136922D01*
X735911Y136946D01*
X735917Y136972D01*
X735925Y137001D01*
X735934Y137033D01*
Y137036D01*
X735937Y137045D01*
X735940Y137059D01*
X735946Y137077D01*
X735952Y137097D01*
X735957Y137123D01*
X735975Y137178D01*
X735992Y137240D01*
X736013Y137301D01*
X736033Y137356D01*
X736042Y137379D01*
X736051Y137400D01*
X736054Y137405D01*
X736059Y137417D01*
X736068Y137434D01*
X736083Y137461D01*
X736100Y137487D01*
X736123Y137513D01*
X736150Y137539D01*
X736179Y137563D01*
X736182Y137565D01*
X736193Y137571D01*
X736211Y137583D01*
X736237Y137594D01*
X736269Y137603D01*
X736304Y137615D01*
X736345Y137621D01*
X736391Y137624D01*
X736412D01*
X736435Y137621D01*
D02*
G37*
G36*
X736819Y132875D02*
X736074Y132389D01*
X736240Y132217D01*
X736819D01*
Y131969D01*
X734805D01*
Y132217D01*
X735955D01*
X735358Y132802D01*
Y133125D01*
X735902Y132563D01*
X736819Y133180D01*
Y132875D01*
D02*
G37*
G36*
Y134315D02*
X735882D01*
X735850Y134312D01*
X735812Y134309D01*
X735774Y134303D01*
X735739Y134295D01*
X735707Y134286D01*
X735704D01*
X735696Y134280D01*
X735681Y134271D01*
X735664Y134263D01*
X735646Y134248D01*
X735626Y134231D01*
X735605Y134207D01*
X735588Y134181D01*
X735585Y134178D01*
X735579Y134169D01*
X735573Y134152D01*
X735565Y134132D01*
X735556Y134108D01*
X735547Y134079D01*
X735544Y134044D01*
X735541Y134009D01*
Y134007D01*
Y134004D01*
Y133995D01*
X735544Y133983D01*
X735547Y133954D01*
X735553Y133916D01*
X735568Y133876D01*
X735585Y133829D01*
X735608Y133782D01*
X735643Y133739D01*
X735649Y133733D01*
X735664Y133721D01*
X735675Y133713D01*
X735690Y133704D01*
X735707Y133692D01*
X735728Y133684D01*
X735751Y133672D01*
X735780Y133660D01*
X735812Y133651D01*
X735847Y133643D01*
X735885Y133637D01*
X735925Y133631D01*
X735975Y133625D01*
X736819D01*
Y133378D01*
X735358D01*
Y133599D01*
X735568D01*
X735565Y133602D01*
X735556Y133608D01*
X735544Y133617D01*
X735530Y133628D01*
X735512Y133646D01*
X735492Y133666D01*
X735469Y133689D01*
X735445Y133718D01*
X735425Y133747D01*
X735402Y133782D01*
X735381Y133820D01*
X735364Y133861D01*
X735349Y133908D01*
X735338Y133954D01*
X735329Y134007D01*
X735326Y134062D01*
Y134065D01*
Y134068D01*
Y134085D01*
X735329Y134108D01*
X735332Y134140D01*
X735338Y134178D01*
X735346Y134219D01*
X735358Y134263D01*
X735375Y134303D01*
X735378Y134309D01*
X735384Y134321D01*
X735393Y134341D01*
X735407Y134364D01*
X735425Y134394D01*
X735448Y134420D01*
X735472Y134446D01*
X735501Y134469D01*
X735504Y134472D01*
X735515Y134478D01*
X735530Y134487D01*
X735550Y134501D01*
X735579Y134513D01*
X735608Y134525D01*
X735643Y134539D01*
X735681Y134548D01*
X735684D01*
X735696Y134551D01*
X735713Y134554D01*
X735736Y134556D01*
X735771D01*
X735812Y134559D01*
X735861Y134562D01*
X736819D01*
Y134315D01*
D02*
G37*
G36*
X736153Y136204D02*
Y135112D01*
X736164D01*
X736176Y135115D01*
X736193D01*
X736214Y135118D01*
X736237Y135124D01*
X736289Y135133D01*
X736347Y135150D01*
X736412Y135173D01*
X736470Y135205D01*
X736522Y135246D01*
Y135249D01*
X736528Y135252D01*
X736543Y135269D01*
X736563Y135296D01*
X736583Y135331D01*
X736607Y135377D01*
X736627Y135430D01*
X736641Y135488D01*
X736644Y135520D01*
X736647Y135555D01*
Y135557D01*
Y135560D01*
Y135578D01*
X736644Y135604D01*
X736638Y135636D01*
X736630Y135671D01*
X736618Y135712D01*
X736601Y135750D01*
X736577Y135787D01*
X736575Y135790D01*
X736563Y135805D01*
X736545Y135822D01*
X736522Y135843D01*
X736490Y135866D01*
X736449Y135892D01*
X736403Y135918D01*
X736347Y135942D01*
X736379Y136198D01*
X736382D01*
X736388Y136195D01*
X736400Y136192D01*
X736417Y136186D01*
X736435Y136177D01*
X736458Y136169D01*
X736508Y136145D01*
X736563Y136116D01*
X736621Y136075D01*
X736676Y136029D01*
X736729Y135971D01*
Y135968D01*
X736734Y135962D01*
X736740Y135953D01*
X736749Y135942D01*
X736758Y135924D01*
X736766Y135907D01*
X736778Y135883D01*
X736790Y135857D01*
X736801Y135828D01*
X736813Y135799D01*
X736831Y135726D01*
X736845Y135645D01*
X736851Y135555D01*
Y135552D01*
Y135540D01*
Y135523D01*
X736848Y135502D01*
X736845Y135476D01*
X736839Y135444D01*
X736833Y135409D01*
X736828Y135371D01*
X736804Y135290D01*
X736787Y135246D01*
X736769Y135205D01*
X736746Y135162D01*
X736720Y135121D01*
X736691Y135083D01*
X736656Y135045D01*
X736653Y135043D01*
X736647Y135037D01*
X736636Y135028D01*
X736618Y135016D01*
X736598Y135002D01*
X736575Y134987D01*
X736545Y134970D01*
X736513Y134952D01*
X736476Y134935D01*
X736435Y134917D01*
X736388Y134903D01*
X736339Y134888D01*
X736286Y134877D01*
X736228Y134868D01*
X736167Y134862D01*
X736103Y134859D01*
X736068D01*
X736042Y134862D01*
X736010Y134865D01*
X735975Y134868D01*
X735934Y134874D01*
X735893Y134882D01*
X735800Y134906D01*
X735754Y134920D01*
X735704Y134938D01*
X735658Y134961D01*
X735614Y134987D01*
X735570Y135016D01*
X735530Y135048D01*
X735527Y135051D01*
X735521Y135057D01*
X735512Y135069D01*
X735498Y135083D01*
X735483Y135101D01*
X735466Y135124D01*
X735445Y135150D01*
X735428Y135182D01*
X735407Y135214D01*
X735390Y135252D01*
X735373Y135293D01*
X735358Y135336D01*
X735344Y135383D01*
X735335Y135432D01*
X735329Y135485D01*
X735326Y135540D01*
Y135543D01*
Y135552D01*
Y135569D01*
X735329Y135590D01*
X735332Y135613D01*
X735338Y135642D01*
X735344Y135674D01*
X735352Y135712D01*
X735361Y135747D01*
X735375Y135787D01*
X735390Y135825D01*
X735410Y135866D01*
X735434Y135907D01*
X735460Y135948D01*
X735492Y135985D01*
X735527Y136020D01*
X735530Y136023D01*
X735536Y136029D01*
X735547Y136038D01*
X735565Y136049D01*
X735585Y136064D01*
X735608Y136078D01*
X735637Y136096D01*
X735672Y136113D01*
X735710Y136131D01*
X735751Y136148D01*
X735798Y136163D01*
X735847Y136177D01*
X735902Y136189D01*
X735960Y136198D01*
X736022Y136204D01*
X736089Y136206D01*
X736123D01*
X736153Y136204D01*
D02*
G37*
G36*
X589681Y128771D02*
X589472D01*
X589475Y128769D01*
X589483Y128763D01*
X589495Y128754D01*
X589510Y128742D01*
X589527Y128725D01*
X589547Y128705D01*
X589571Y128681D01*
X589594Y128652D01*
X589614Y128623D01*
X589638Y128588D01*
X589658Y128550D01*
X589676Y128510D01*
X589690Y128463D01*
X589702Y128417D01*
X589710Y128364D01*
X589713Y128309D01*
Y128306D01*
Y128303D01*
Y128286D01*
X589710Y128262D01*
X589708Y128230D01*
X589702Y128192D01*
X589693Y128152D01*
X589681Y128108D01*
X589664Y128067D01*
X589661Y128061D01*
X589655Y128050D01*
X589646Y128030D01*
X589632Y128006D01*
X589614Y127977D01*
X589591Y127951D01*
X589568Y127925D01*
X589539Y127901D01*
X589536Y127899D01*
X589524Y127893D01*
X589510Y127884D01*
X589489Y127869D01*
X589460Y127858D01*
X589431Y127846D01*
X589396Y127832D01*
X589358Y127823D01*
X589355D01*
X589344Y127820D01*
X589326Y127817D01*
X589303Y127814D01*
X589268D01*
X589227Y127811D01*
X589178Y127808D01*
X588221D01*
Y128056D01*
X589157D01*
X589189Y128059D01*
X589227Y128061D01*
X589265Y128067D01*
X589300Y128076D01*
X589332Y128085D01*
X589335D01*
X589344Y128091D01*
X589358Y128099D01*
X589376Y128108D01*
X589393Y128123D01*
X589414Y128140D01*
X589434Y128163D01*
X589451Y128190D01*
X589454Y128192D01*
X589460Y128201D01*
X589466Y128219D01*
X589475Y128239D01*
X589483Y128262D01*
X589492Y128291D01*
X589495Y128326D01*
X589498Y128361D01*
Y128364D01*
Y128367D01*
Y128376D01*
X589495Y128387D01*
X589492Y128417D01*
X589486Y128454D01*
X589472Y128495D01*
X589454Y128542D01*
X589431Y128588D01*
X589396Y128632D01*
X589390Y128638D01*
X589376Y128649D01*
X589364Y128658D01*
X589350Y128667D01*
X589332Y128678D01*
X589312Y128687D01*
X589288Y128699D01*
X589259Y128710D01*
X589227Y128719D01*
X589192Y128728D01*
X589155Y128734D01*
X589114Y128740D01*
X589064Y128745D01*
X588221D01*
Y128993D01*
X589681D01*
Y128771D01*
D02*
G37*
G36*
X590234Y129377D02*
X589996D01*
Y130567D01*
X589382D01*
Y129453D01*
X589143D01*
Y130567D01*
X588459D01*
Y129330D01*
X588221D01*
Y130835D01*
X590234D01*
Y129377D01*
D02*
G37*
G36*
Y132755D02*
Y132752D01*
Y132744D01*
Y132732D01*
Y132718D01*
X590231Y132697D01*
Y132674D01*
X590226Y132622D01*
X590220Y132563D01*
X590208Y132502D01*
X590194Y132441D01*
X590173Y132386D01*
Y132383D01*
X590170Y132380D01*
X590161Y132362D01*
X590147Y132336D01*
X590127Y132307D01*
X590100Y132272D01*
X590068Y132234D01*
X590028Y132200D01*
X589984Y132167D01*
X589978Y132165D01*
X589961Y132156D01*
X589937Y132141D01*
X589902Y132127D01*
X589862Y132112D01*
X589818Y132098D01*
X589769Y132089D01*
X589719Y132086D01*
X589699D01*
X589673Y132089D01*
X589641Y132095D01*
X589603Y132104D01*
X589562Y132118D01*
X589521Y132135D01*
X589478Y132159D01*
X589472Y132162D01*
X589460Y132170D01*
X589437Y132188D01*
X589414Y132211D01*
X589385Y132240D01*
X589353Y132275D01*
X589323Y132319D01*
X589294Y132368D01*
Y132365D01*
X589291Y132360D01*
X589288Y132351D01*
X589283Y132339D01*
X589271Y132304D01*
X589251Y132264D01*
X589224Y132220D01*
X589192Y132170D01*
X589155Y132127D01*
X589108Y132086D01*
X589102Y132083D01*
X589085Y132071D01*
X589059Y132054D01*
X589024Y132037D01*
X588977Y132019D01*
X588928Y132002D01*
X588869Y131990D01*
X588805Y131987D01*
X588782D01*
X588753Y131990D01*
X588718Y131996D01*
X588677Y132002D01*
X588634Y132013D01*
X588587Y132028D01*
X588541Y132048D01*
X588535Y132051D01*
X588520Y132060D01*
X588500Y132071D01*
X588471Y132089D01*
X588442Y132112D01*
X588410Y132135D01*
X588378Y132165D01*
X588351Y132197D01*
X588348Y132200D01*
X588340Y132211D01*
X588328Y132231D01*
X588316Y132258D01*
X588299Y132290D01*
X588282Y132328D01*
X588267Y132368D01*
X588252Y132418D01*
Y132424D01*
X588247Y132441D01*
X588244Y132470D01*
X588238Y132508D01*
X588232Y132554D01*
X588226Y132610D01*
X588223Y132671D01*
X588221Y132741D01*
Y133509D01*
X590234D01*
Y132755D01*
D02*
G37*
G36*
X589003Y127517D02*
X589026D01*
X589079Y127512D01*
X589140Y127503D01*
X589207Y127488D01*
X589277Y127471D01*
X589344Y127447D01*
X589347D01*
X589353Y127445D01*
X589361Y127439D01*
X589373Y127433D01*
X589405Y127416D01*
X589446Y127392D01*
X589489Y127363D01*
X589533Y127325D01*
X589579Y127282D01*
X589617Y127229D01*
Y127226D01*
X589620Y127223D01*
X589626Y127215D01*
X589632Y127203D01*
X589646Y127174D01*
X589667Y127133D01*
X589684Y127087D01*
X589699Y127031D01*
X589710Y126970D01*
X589713Y126906D01*
Y126903D01*
Y126900D01*
Y126883D01*
X589710Y126860D01*
X589708Y126828D01*
X589699Y126790D01*
X589690Y126749D01*
X589676Y126708D01*
X589655Y126671D01*
X589652Y126665D01*
X589646Y126653D01*
X589632Y126636D01*
X589617Y126612D01*
X589597Y126583D01*
X589571Y126557D01*
X589544Y126528D01*
X589512Y126502D01*
X590234D01*
Y126254D01*
X588221D01*
Y126484D01*
X588404D01*
X588401Y126487D01*
X588395Y126490D01*
X588383Y126499D01*
X588369Y126511D01*
X588354Y126525D01*
X588337Y126542D01*
X588316Y126563D01*
X588296Y126589D01*
X588276Y126615D01*
X588255Y126644D01*
X588238Y126679D01*
X588223Y126717D01*
X588209Y126755D01*
X588197Y126799D01*
X588191Y126845D01*
X588189Y126895D01*
Y126898D01*
Y126903D01*
Y126912D01*
X588191Y126924D01*
X588194Y126959D01*
X588200Y126999D01*
X588212Y127049D01*
X588229Y127104D01*
X588252Y127159D01*
X588284Y127215D01*
Y127218D01*
X588290Y127220D01*
X588302Y127238D01*
X588325Y127264D01*
X588354Y127296D01*
X588392Y127334D01*
X588439Y127372D01*
X588491Y127410D01*
X588552Y127442D01*
X588555D01*
X588561Y127445D01*
X588570Y127447D01*
X588581Y127453D01*
X588599Y127459D01*
X588619Y127468D01*
X588639Y127474D01*
X588666Y127480D01*
X588724Y127494D01*
X588791Y127509D01*
X588867Y127517D01*
X588948Y127520D01*
X588986D01*
X589003Y127517D01*
D02*
G37*
G36*
X736216Y143705D02*
X736234D01*
X736281Y143697D01*
X736336Y143688D01*
X736394Y143674D01*
X736458Y143653D01*
X736519Y143624D01*
X736522D01*
X736525Y143621D01*
X736534Y143615D01*
X736545Y143609D01*
X736575Y143592D01*
X736612Y143566D01*
X736653Y143534D01*
X736694Y143496D01*
X736734Y143449D01*
X736769Y143400D01*
Y143397D01*
X736772Y143394D01*
X736778Y143385D01*
X736781Y143374D01*
X736796Y143345D01*
X736810Y143307D01*
X736828Y143257D01*
X736839Y143202D01*
X736851Y143141D01*
X736854Y143074D01*
Y143071D01*
Y143060D01*
X736851Y143045D01*
Y143022D01*
X736848Y142996D01*
X736842Y142966D01*
X736833Y142931D01*
X736825Y142897D01*
X736813Y142856D01*
X736798Y142815D01*
X736781Y142774D01*
X736758Y142731D01*
X736732Y142690D01*
X736702Y142649D01*
X736668Y142608D01*
X736627Y142571D01*
X736624Y142568D01*
X736615Y142562D01*
X736604Y142553D01*
X736583Y142542D01*
X736557Y142524D01*
X736528Y142509D01*
X736490Y142492D01*
X736449Y142475D01*
X736400Y142454D01*
X736345Y142437D01*
X736283Y142422D01*
X736216Y142408D01*
X736141Y142393D01*
X736059Y142384D01*
X735972Y142379D01*
X735879Y142376D01*
X735853D01*
X735824Y142379D01*
X735783D01*
X735736Y142382D01*
X735681Y142387D01*
X735620Y142393D01*
X735553Y142402D01*
X735486Y142413D01*
X735413Y142428D01*
X735344Y142446D01*
X735274Y142466D01*
X735207Y142492D01*
X735143Y142521D01*
X735082Y142553D01*
X735029Y142591D01*
X735026Y142594D01*
X735020Y142600D01*
X735009Y142611D01*
X734991Y142626D01*
X734974Y142643D01*
X734957Y142667D01*
X734933Y142696D01*
X734913Y142725D01*
X734893Y142760D01*
X734869Y142798D01*
X734852Y142841D01*
X734831Y142885D01*
X734817Y142934D01*
X734805Y142987D01*
X734799Y143042D01*
X734796Y143100D01*
Y143103D01*
Y143112D01*
Y143123D01*
X734799Y143141D01*
Y143161D01*
X734802Y143185D01*
X734814Y143240D01*
X734829Y143301D01*
X734852Y143365D01*
X734887Y143429D01*
X734907Y143461D01*
X734930Y143490D01*
X734933Y143493D01*
X734936Y143496D01*
X734945Y143505D01*
X734954Y143514D01*
X734968Y143528D01*
X734986Y143540D01*
X735026Y143572D01*
X735079Y143604D01*
X735143Y143633D01*
X735216Y143659D01*
X735297Y143676D01*
X735317Y143429D01*
X735314D01*
X735312Y143426D01*
X735294Y143423D01*
X735268Y143414D01*
X735236Y143403D01*
X735201Y143391D01*
X735166Y143374D01*
X735134Y143353D01*
X735108Y143333D01*
X735102Y143327D01*
X735090Y143316D01*
X735073Y143295D01*
X735052Y143266D01*
X735035Y143228D01*
X735018Y143188D01*
X735006Y143138D01*
X735000Y143086D01*
Y143080D01*
Y143065D01*
X735003Y143042D01*
X735009Y143016D01*
X735018Y142981D01*
X735029Y142946D01*
X735044Y142911D01*
X735067Y142876D01*
X735070Y142870D01*
X735082Y142856D01*
X735102Y142835D01*
X735131Y142809D01*
X735166Y142780D01*
X735207Y142748D01*
X735259Y142719D01*
X735317Y142690D01*
X735320D01*
X735326Y142687D01*
X735335Y142684D01*
X735346Y142678D01*
X735364Y142675D01*
X735384Y142670D01*
X735407Y142664D01*
X735437Y142658D01*
X735469Y142649D01*
X735504Y142643D01*
X735541Y142638D01*
X735582Y142635D01*
X735629Y142629D01*
X735675Y142626D01*
X735728Y142623D01*
X735780D01*
X735777Y142626D01*
X735760Y142638D01*
X735736Y142658D01*
X735707Y142684D01*
X735672Y142713D01*
X735640Y142751D01*
X735608Y142792D01*
X735579Y142838D01*
Y142841D01*
X735576Y142844D01*
X735568Y142862D01*
X735559Y142888D01*
X735544Y142923D01*
X735533Y142964D01*
X735524Y143010D01*
X735515Y143060D01*
X735512Y143112D01*
Y143115D01*
Y143123D01*
Y143135D01*
X735515Y143153D01*
X735518Y143176D01*
X735521Y143199D01*
X735527Y143228D01*
X735536Y143257D01*
X735556Y143324D01*
X735570Y143359D01*
X735591Y143394D01*
X735611Y143429D01*
X735635Y143467D01*
X735664Y143502D01*
X735696Y143534D01*
X735699Y143537D01*
X735704Y143543D01*
X735713Y143551D01*
X735728Y143560D01*
X735748Y143575D01*
X735768Y143589D01*
X735795Y143604D01*
X735824Y143621D01*
X735856Y143639D01*
X735891Y143653D01*
X735931Y143668D01*
X735972Y143682D01*
X736016Y143691D01*
X736065Y143700D01*
X736115Y143705D01*
X736167Y143708D01*
X736199D01*
X736216Y143705D01*
D02*
G37*
G36*
X736819Y145754D02*
X735853D01*
X735821Y145751D01*
X735786Y145748D01*
X735751Y145746D01*
X735716Y145740D01*
X735690Y145731D01*
X735687D01*
X735678Y145725D01*
X735667Y145719D01*
X735652Y145711D01*
X735635Y145699D01*
X735617Y145684D01*
X735600Y145667D01*
X735582Y145644D01*
X735579Y145641D01*
X735576Y145632D01*
X735570Y145620D01*
X735562Y145600D01*
X735553Y145580D01*
X735547Y145553D01*
X735544Y145527D01*
X735541Y145495D01*
Y145492D01*
Y145489D01*
Y145481D01*
X735544Y145469D01*
X735547Y145440D01*
X735553Y145405D01*
X735568Y145364D01*
X735585Y145321D01*
X735611Y145277D01*
X735646Y145236D01*
X735652Y145233D01*
X735667Y145222D01*
X735690Y145204D01*
X735725Y145187D01*
X735771Y145166D01*
X735827Y145152D01*
X735893Y145140D01*
X735972Y145134D01*
X736819D01*
Y144887D01*
X735847D01*
X735815Y144884D01*
X735780Y144878D01*
X735739Y144872D01*
X735699Y144861D01*
X735661Y144846D01*
X735626Y144826D01*
X735623Y144823D01*
X735611Y144814D01*
X735600Y144800D01*
X735582Y144779D01*
X735568Y144753D01*
X735553Y144718D01*
X735544Y144677D01*
X735541Y144628D01*
Y144622D01*
Y144611D01*
X735544Y144590D01*
X735547Y144567D01*
X735556Y144538D01*
X735565Y144503D01*
X735579Y144471D01*
X735597Y144436D01*
X735600Y144433D01*
X735608Y144421D01*
X735620Y144407D01*
X735637Y144386D01*
X735661Y144366D01*
X735690Y144346D01*
X735722Y144325D01*
X735760Y144308D01*
X735766Y144305D01*
X735780Y144302D01*
X735803Y144296D01*
X735835Y144288D01*
X735879Y144279D01*
X735931Y144273D01*
X735992Y144270D01*
X736062Y144267D01*
X736819D01*
Y144020D01*
X735358D01*
Y144241D01*
X735568D01*
X735562Y144244D01*
X735550Y144253D01*
X735530Y144270D01*
X735506Y144290D01*
X735477Y144317D01*
X735448Y144349D01*
X735419Y144384D01*
X735393Y144424D01*
X735390Y144430D01*
X735381Y144445D01*
X735373Y144468D01*
X735358Y144500D01*
X735346Y144538D01*
X735338Y144581D01*
X735329Y144631D01*
X735326Y144683D01*
Y144686D01*
Y144692D01*
Y144698D01*
Y144710D01*
X735329Y144741D01*
X735335Y144776D01*
X735344Y144820D01*
X735355Y144864D01*
X735373Y144907D01*
X735396Y144948D01*
X735399Y144954D01*
X735407Y144966D01*
X735422Y144983D01*
X735445Y145006D01*
X735472Y145030D01*
X735504Y145056D01*
X735541Y145079D01*
X735585Y145097D01*
X735582Y145099D01*
X735573Y145105D01*
X735562Y145114D01*
X735544Y145129D01*
X735524Y145146D01*
X735504Y145166D01*
X735480Y145190D01*
X735454Y145219D01*
X735431Y145251D01*
X735407Y145283D01*
X735387Y145321D01*
X735367Y145361D01*
X735349Y145405D01*
X735338Y145451D01*
X735329Y145498D01*
X735326Y145551D01*
Y145553D01*
Y145559D01*
Y145571D01*
X735329Y145585D01*
Y145606D01*
X735332Y145626D01*
X735341Y145676D01*
X735355Y145728D01*
X735378Y145783D01*
X735407Y145839D01*
X735448Y145885D01*
X735454Y145891D01*
X735472Y145903D01*
X735498Y145923D01*
X735518Y145932D01*
X735538Y145943D01*
X735565Y145955D01*
X735591Y145964D01*
X735620Y145975D01*
X735655Y145984D01*
X735690Y145990D01*
X735731Y145996D01*
X735771Y146002D01*
X736819D01*
Y145754D01*
D02*
G37*
G36*
Y148100D02*
X735853D01*
X735821Y148097D01*
X735786Y148094D01*
X735751Y148091D01*
X735716Y148085D01*
X735690Y148076D01*
X735687D01*
X735678Y148071D01*
X735667Y148065D01*
X735652Y148056D01*
X735635Y148044D01*
X735617Y148030D01*
X735600Y148012D01*
X735582Y147989D01*
X735579Y147986D01*
X735576Y147977D01*
X735570Y147966D01*
X735562Y147945D01*
X735553Y147925D01*
X735547Y147899D01*
X735544Y147873D01*
X735541Y147841D01*
Y147838D01*
Y147835D01*
Y147826D01*
X735544Y147815D01*
X735547Y147785D01*
X735553Y147750D01*
X735568Y147710D01*
X735585Y147666D01*
X735611Y147622D01*
X735646Y147582D01*
X735652Y147579D01*
X735667Y147567D01*
X735690Y147550D01*
X735725Y147532D01*
X735771Y147512D01*
X735827Y147497D01*
X735893Y147486D01*
X735972Y147480D01*
X736819D01*
Y147232D01*
X735847D01*
X735815Y147230D01*
X735780Y147224D01*
X735739Y147218D01*
X735699Y147206D01*
X735661Y147192D01*
X735626Y147171D01*
X735623Y147168D01*
X735611Y147160D01*
X735600Y147145D01*
X735582Y147125D01*
X735568Y147099D01*
X735553Y147064D01*
X735544Y147023D01*
X735541Y146974D01*
Y146968D01*
Y146956D01*
X735544Y146936D01*
X735547Y146912D01*
X735556Y146883D01*
X735565Y146848D01*
X735579Y146816D01*
X735597Y146781D01*
X735600Y146779D01*
X735608Y146767D01*
X735620Y146752D01*
X735637Y146732D01*
X735661Y146712D01*
X735690Y146691D01*
X735722Y146671D01*
X735760Y146653D01*
X735766Y146651D01*
X735780Y146648D01*
X735803Y146642D01*
X735835Y146633D01*
X735879Y146624D01*
X735931Y146618D01*
X735992Y146616D01*
X736062Y146613D01*
X736819D01*
Y146365D01*
X735358D01*
Y146586D01*
X735568D01*
X735562Y146589D01*
X735550Y146598D01*
X735530Y146616D01*
X735506Y146636D01*
X735477Y146662D01*
X735448Y146694D01*
X735419Y146729D01*
X735393Y146770D01*
X735390Y146776D01*
X735381Y146790D01*
X735373Y146813D01*
X735358Y146845D01*
X735346Y146883D01*
X735338Y146927D01*
X735329Y146976D01*
X735326Y147029D01*
Y147032D01*
Y147037D01*
Y147043D01*
Y147055D01*
X735329Y147087D01*
X735335Y147122D01*
X735344Y147166D01*
X735355Y147209D01*
X735373Y147253D01*
X735396Y147294D01*
X735399Y147299D01*
X735407Y147311D01*
X735422Y147328D01*
X735445Y147352D01*
X735472Y147375D01*
X735504Y147401D01*
X735541Y147424D01*
X735585Y147442D01*
X735582Y147445D01*
X735573Y147451D01*
X735562Y147459D01*
X735544Y147474D01*
X735524Y147492D01*
X735504Y147512D01*
X735480Y147535D01*
X735454Y147564D01*
X735431Y147596D01*
X735407Y147628D01*
X735387Y147666D01*
X735367Y147707D01*
X735349Y147750D01*
X735338Y147797D01*
X735329Y147844D01*
X735326Y147896D01*
Y147899D01*
Y147905D01*
Y147916D01*
X735329Y147931D01*
Y147951D01*
X735332Y147972D01*
X735341Y148021D01*
X735355Y148073D01*
X735378Y148129D01*
X735407Y148184D01*
X735448Y148231D01*
X735454Y148236D01*
X735472Y148248D01*
X735498Y148268D01*
X735518Y148277D01*
X735538Y148289D01*
X735565Y148300D01*
X735591Y148309D01*
X735620Y148321D01*
X735655Y148329D01*
X735690Y148335D01*
X735731Y148341D01*
X735771Y148347D01*
X736819D01*
Y148100D01*
D02*
G37*
G36*
X701780Y136944D02*
X700843D01*
X700810Y136941D01*
X700773Y136939D01*
X700735Y136933D01*
X700700Y136924D01*
X700668Y136915D01*
X700665D01*
X700656Y136909D01*
X700642Y136901D01*
X700624Y136892D01*
X700607Y136877D01*
X700586Y136860D01*
X700566Y136837D01*
X700549Y136811D01*
X700546Y136808D01*
X700540Y136799D01*
X700534Y136781D01*
X700525Y136761D01*
X700517Y136738D01*
X700508Y136709D01*
X700505Y136674D01*
X700502Y136639D01*
Y136636D01*
Y136633D01*
Y136624D01*
X700505Y136613D01*
X700508Y136583D01*
X700514Y136546D01*
X700528Y136505D01*
X700546Y136458D01*
X700569Y136412D01*
X700604Y136368D01*
X700610Y136362D01*
X700624Y136351D01*
X700636Y136342D01*
X700651Y136333D01*
X700668Y136322D01*
X700688Y136313D01*
X700712Y136301D01*
X700741Y136290D01*
X700773Y136281D01*
X700808Y136272D01*
X700845Y136266D01*
X700886Y136260D01*
X700936Y136255D01*
X701780D01*
Y136007D01*
X700319D01*
Y136229D01*
X700528D01*
X700525Y136231D01*
X700517Y136237D01*
X700505Y136246D01*
X700490Y136258D01*
X700473Y136275D01*
X700453Y136295D01*
X700429Y136319D01*
X700406Y136348D01*
X700386Y136377D01*
X700362Y136412D01*
X700342Y136450D01*
X700324Y136490D01*
X700310Y136537D01*
X700298Y136583D01*
X700290Y136636D01*
X700287Y136691D01*
Y136694D01*
Y136697D01*
Y136714D01*
X700290Y136738D01*
X700292Y136770D01*
X700298Y136808D01*
X700307Y136848D01*
X700319Y136892D01*
X700336Y136933D01*
X700339Y136939D01*
X700345Y136950D01*
X700354Y136970D01*
X700368Y136994D01*
X700386Y137023D01*
X700409Y137049D01*
X700432Y137075D01*
X700461Y137099D01*
X700464Y137101D01*
X700476Y137107D01*
X700490Y137116D01*
X700511Y137131D01*
X700540Y137142D01*
X700569Y137154D01*
X700604Y137168D01*
X700642Y137177D01*
X700645D01*
X700656Y137180D01*
X700674Y137183D01*
X700697Y137186D01*
X700732D01*
X700773Y137189D01*
X700822Y137192D01*
X701780D01*
Y136944D01*
D02*
G37*
G36*
Y138516D02*
X701596D01*
X701599Y138513D01*
X701605Y138510D01*
X701617Y138501D01*
X701631Y138489D01*
X701646Y138475D01*
X701663Y138458D01*
X701684Y138437D01*
X701704Y138411D01*
X701724Y138385D01*
X701745Y138356D01*
X701762Y138321D01*
X701777Y138283D01*
X701791Y138245D01*
X701803Y138201D01*
X701809Y138155D01*
X701812Y138105D01*
Y138102D01*
Y138097D01*
Y138088D01*
X701809Y138076D01*
X701806Y138041D01*
X701800Y138001D01*
X701788Y137951D01*
X701771Y137896D01*
X701748Y137841D01*
X701716Y137785D01*
Y137782D01*
X701710Y137779D01*
X701698Y137762D01*
X701675Y137736D01*
X701646Y137704D01*
X701608Y137666D01*
X701561Y137628D01*
X701509Y137590D01*
X701448Y137558D01*
X701445D01*
X701439Y137555D01*
X701430Y137552D01*
X701419Y137547D01*
X701401Y137541D01*
X701381Y137532D01*
X701361Y137526D01*
X701334Y137521D01*
X701276Y137506D01*
X701209Y137491D01*
X701133Y137483D01*
X701052Y137480D01*
X701014D01*
X700997Y137483D01*
X700974D01*
X700921Y137488D01*
X700860Y137497D01*
X700793Y137512D01*
X700723Y137529D01*
X700656Y137552D01*
X700653D01*
X700647Y137555D01*
X700639Y137561D01*
X700627Y137567D01*
X700595Y137584D01*
X700554Y137608D01*
X700511Y137637D01*
X700467Y137675D01*
X700421Y137718D01*
X700383Y137771D01*
Y137774D01*
X700380Y137777D01*
X700374Y137785D01*
X700368Y137797D01*
X700354Y137826D01*
X700333Y137867D01*
X700316Y137913D01*
X700301Y137969D01*
X700290Y138030D01*
X700287Y138094D01*
Y138097D01*
Y138100D01*
Y138117D01*
X700290Y138140D01*
X700292Y138172D01*
X700301Y138210D01*
X700310Y138251D01*
X700324Y138292D01*
X700345Y138330D01*
X700348Y138335D01*
X700354Y138347D01*
X700368Y138364D01*
X700383Y138388D01*
X700403Y138417D01*
X700429Y138443D01*
X700456Y138472D01*
X700488Y138498D01*
X699766D01*
Y138746D01*
X701780D01*
Y138516D01*
D02*
G37*
G36*
X735434Y121648D02*
X735454Y121645D01*
X735480Y121642D01*
X735509Y121636D01*
X735541Y121630D01*
X735608Y121610D01*
X735643Y121598D01*
X735681Y121581D01*
X735719Y121560D01*
X735754Y121540D01*
X735789Y121514D01*
X735824Y121485D01*
X735827Y121482D01*
X735832Y121476D01*
X735841Y121467D01*
X735850Y121453D01*
X735864Y121435D01*
X735879Y121412D01*
X735896Y121383D01*
X735911Y121351D01*
X735928Y121313D01*
X735946Y121269D01*
X735960Y121223D01*
X735972Y121168D01*
X735984Y121109D01*
X735992Y121045D01*
X735998Y120973D01*
X736001Y120897D01*
Y120382D01*
X736819D01*
Y120114D01*
X734805D01*
Y120871D01*
Y120874D01*
Y120879D01*
Y120891D01*
Y120903D01*
Y120920D01*
Y120941D01*
X734808Y120984D01*
X734811Y121034D01*
X734814Y121086D01*
X734820Y121136D01*
X734826Y121179D01*
Y121182D01*
Y121185D01*
X734831Y121205D01*
X734837Y121232D01*
X734846Y121266D01*
X734861Y121304D01*
X734878Y121345D01*
X734898Y121389D01*
X734922Y121427D01*
X734925Y121432D01*
X734933Y121444D01*
X734951Y121461D01*
X734971Y121485D01*
X734997Y121511D01*
X735032Y121537D01*
X735070Y121566D01*
X735114Y121590D01*
X735119Y121592D01*
X735134Y121598D01*
X735160Y121610D01*
X735195Y121622D01*
X735236Y121630D01*
X735282Y121642D01*
X735335Y121648D01*
X735390Y121651D01*
X735413D01*
X735434Y121648D01*
D02*
G37*
G36*
X701780Y134165D02*
X699766D01*
Y135623D01*
X700004D01*
Y134433D01*
X700618D01*
Y135547D01*
X700857D01*
Y134433D01*
X701541D01*
Y135670D01*
X701780D01*
Y134165D01*
D02*
G37*
G36*
X700394Y129128D02*
X700415Y129125D01*
X700441Y129122D01*
X700470Y129116D01*
X700502Y129111D01*
X700569Y129090D01*
X700604Y129079D01*
X700642Y129061D01*
X700680Y129041D01*
X700714Y129020D01*
X700749Y128994D01*
X700784Y128965D01*
X700787Y128962D01*
X700793Y128956D01*
X700802Y128948D01*
X700810Y128933D01*
X700825Y128916D01*
X700840Y128892D01*
X700857Y128863D01*
X700872Y128831D01*
X700889Y128793D01*
X700907Y128750D01*
X700921Y128703D01*
X700933Y128648D01*
X700944Y128590D01*
X700953Y128526D01*
X700959Y128453D01*
X700962Y128377D01*
Y127862D01*
X701780D01*
Y127594D01*
X699766D01*
Y128351D01*
Y128354D01*
Y128360D01*
Y128372D01*
Y128383D01*
Y128401D01*
Y128421D01*
X699769Y128465D01*
X699772Y128514D01*
X699775Y128566D01*
X699780Y128616D01*
X699786Y128659D01*
Y128663D01*
Y128665D01*
X699792Y128686D01*
X699798Y128712D01*
X699806Y128747D01*
X699821Y128785D01*
X699839Y128825D01*
X699859Y128869D01*
X699882Y128907D01*
X699885Y128913D01*
X699894Y128924D01*
X699911Y128942D01*
X699932Y128965D01*
X699958Y128991D01*
X699993Y129017D01*
X700031Y129047D01*
X700074Y129070D01*
X700080Y129073D01*
X700095Y129079D01*
X700121Y129090D01*
X700156Y129102D01*
X700197Y129111D01*
X700243Y129122D01*
X700295Y129128D01*
X700351Y129131D01*
X700374D01*
X700394Y129128D01*
D02*
G37*
G36*
X701157Y131171D02*
X701174Y131165D01*
X701197Y131156D01*
X701224Y131148D01*
X701256Y131136D01*
X701291Y131121D01*
X701329Y131104D01*
X701410Y131063D01*
X701491Y131011D01*
X701532Y130979D01*
X701573Y130947D01*
X701608Y130912D01*
X701643Y130871D01*
X701646Y130868D01*
X701651Y130862D01*
X701657Y130848D01*
X701669Y130833D01*
X701684Y130810D01*
X701698Y130787D01*
X701713Y130755D01*
X701727Y130723D01*
X701745Y130685D01*
X701759Y130644D01*
X701774Y130601D01*
X701788Y130554D01*
X701800Y130505D01*
X701806Y130452D01*
X701812Y130397D01*
X701815Y130339D01*
Y130336D01*
Y130324D01*
Y130307D01*
X701812Y130283D01*
Y130257D01*
X701809Y130225D01*
X701803Y130190D01*
X701797Y130149D01*
X701782Y130065D01*
X701759Y129978D01*
X701727Y129891D01*
X701707Y129850D01*
X701684Y129809D01*
X701681Y129806D01*
X701678Y129800D01*
X701669Y129789D01*
X701657Y129777D01*
X701646Y129760D01*
X701628Y129739D01*
X701608Y129716D01*
X701585Y129693D01*
X701558Y129669D01*
X701532Y129643D01*
X701465Y129591D01*
X701387Y129541D01*
X701299Y129498D01*
X701297D01*
X701288Y129492D01*
X701273Y129489D01*
X701256Y129480D01*
X701232Y129474D01*
X701203Y129466D01*
X701171Y129454D01*
X701136Y129445D01*
X701099Y129437D01*
X701055Y129425D01*
X700965Y129410D01*
X700863Y129399D01*
X700758Y129393D01*
X700726D01*
X700706Y129396D01*
X700677D01*
X700647Y129399D01*
X700610Y129402D01*
X700572Y129407D01*
X700488Y129422D01*
X700394Y129442D01*
X700301Y129471D01*
X700211Y129512D01*
X700208Y129515D01*
X700199Y129518D01*
X700188Y129524D01*
X700173Y129535D01*
X700153Y129547D01*
X700130Y129562D01*
X700077Y129599D01*
X700019Y129649D01*
X699961Y129707D01*
X699903Y129774D01*
X699853Y129853D01*
X699850Y129856D01*
X699847Y129864D01*
X699841Y129876D01*
X699833Y129891D01*
X699824Y129914D01*
X699815Y129937D01*
X699804Y129966D01*
X699792Y129998D01*
X699780Y130033D01*
X699769Y130071D01*
X699751Y130152D01*
X699737Y130245D01*
X699731Y130341D01*
Y130344D01*
Y130356D01*
Y130371D01*
X699734Y130391D01*
X699737Y130417D01*
X699740Y130449D01*
X699743Y130481D01*
X699751Y130519D01*
X699769Y130598D01*
X699795Y130685D01*
X699812Y130729D01*
X699833Y130769D01*
X699859Y130810D01*
X699885Y130851D01*
X699888Y130854D01*
X699891Y130859D01*
X699900Y130871D01*
X699914Y130886D01*
X699929Y130900D01*
X699949Y130921D01*
X699972Y130941D01*
X699996Y130964D01*
X700025Y130988D01*
X700060Y131011D01*
X700095Y131037D01*
X700133Y131060D01*
X700176Y131081D01*
X700220Y131104D01*
X700266Y131121D01*
X700319Y131139D01*
X700380Y130877D01*
X700377D01*
X700371Y130874D01*
X700359Y130868D01*
X700345Y130862D01*
X700327Y130857D01*
X700304Y130848D01*
X700258Y130825D01*
X700205Y130796D01*
X700153Y130761D01*
X700103Y130717D01*
X700060Y130670D01*
X700054Y130665D01*
X700042Y130647D01*
X700028Y130618D01*
X700007Y130580D01*
X699990Y130531D01*
X699972Y130475D01*
X699961Y130409D01*
X699958Y130336D01*
Y130333D01*
Y130324D01*
Y130312D01*
X699961Y130298D01*
Y130278D01*
X699964Y130254D01*
X699972Y130199D01*
X699984Y130138D01*
X700004Y130074D01*
X700034Y130007D01*
X700071Y129946D01*
Y129943D01*
X700077Y129940D01*
X700092Y129920D01*
X700115Y129893D01*
X700150Y129861D01*
X700194Y129824D01*
X700243Y129789D01*
X700304Y129757D01*
X700371Y129727D01*
X700374D01*
X700380Y129725D01*
X700389Y129722D01*
X700403Y129719D01*
X700421Y129713D01*
X700441Y129707D01*
X700490Y129698D01*
X700549Y129687D01*
X700613Y129675D01*
X700682Y129669D01*
X700758Y129666D01*
X700802D01*
X700822Y129669D01*
X700848D01*
X700877Y129672D01*
X700909Y129675D01*
X700979Y129684D01*
X701055Y129698D01*
X701131Y129716D01*
X701206Y129739D01*
X701209D01*
X701215Y129742D01*
X701224Y129748D01*
X701238Y129754D01*
X701273Y129771D01*
X701314Y129797D01*
X701361Y129829D01*
X701410Y129870D01*
X701454Y129917D01*
X701494Y129972D01*
Y129975D01*
X701497Y129981D01*
X701503Y129989D01*
X701509Y130001D01*
X701515Y130016D01*
X701523Y130033D01*
X701541Y130074D01*
X701558Y130126D01*
X701573Y130184D01*
X701585Y130248D01*
X701587Y130315D01*
Y130318D01*
Y130324D01*
Y130336D01*
X701585Y130353D01*
Y130374D01*
X701582Y130394D01*
X701570Y130446D01*
X701555Y130507D01*
X701532Y130569D01*
X701500Y130632D01*
X701483Y130665D01*
X701459Y130694D01*
X701456Y130697D01*
X701454Y130700D01*
X701445Y130708D01*
X701436Y130720D01*
X701422Y130731D01*
X701404Y130746D01*
X701387Y130763D01*
X701363Y130778D01*
X701337Y130796D01*
X701308Y130816D01*
X701279Y130833D01*
X701244Y130851D01*
X701206Y130865D01*
X701165Y130880D01*
X701122Y130894D01*
X701075Y130906D01*
X701142Y131174D01*
X701145D01*
X701157Y131171D01*
D02*
G37*
G36*
X701247Y133010D02*
X701282Y133004D01*
X701323Y132998D01*
X701366Y132987D01*
X701413Y132972D01*
X701459Y132952D01*
X701465Y132949D01*
X701480Y132940D01*
X701500Y132929D01*
X701529Y132911D01*
X701558Y132888D01*
X701590Y132864D01*
X701622Y132835D01*
X701649Y132803D01*
X701651Y132800D01*
X701660Y132789D01*
X701672Y132768D01*
X701684Y132742D01*
X701701Y132710D01*
X701718Y132672D01*
X701733Y132632D01*
X701748Y132582D01*
Y132576D01*
X701753Y132559D01*
X701756Y132530D01*
X701762Y132492D01*
X701768Y132446D01*
X701774Y132390D01*
X701777Y132329D01*
X701780Y132259D01*
Y131491D01*
X699766D01*
Y132245D01*
Y132248D01*
Y132256D01*
Y132268D01*
Y132282D01*
X699769Y132303D01*
Y132326D01*
X699775Y132378D01*
X699780Y132437D01*
X699792Y132498D01*
X699806Y132559D01*
X699827Y132614D01*
Y132617D01*
X699830Y132620D01*
X699839Y132638D01*
X699853Y132664D01*
X699873Y132693D01*
X699900Y132728D01*
X699932Y132766D01*
X699972Y132800D01*
X700016Y132833D01*
X700022Y132835D01*
X700039Y132844D01*
X700063Y132859D01*
X700098Y132873D01*
X700138Y132888D01*
X700182Y132902D01*
X700231Y132911D01*
X700281Y132914D01*
X700301D01*
X700327Y132911D01*
X700359Y132905D01*
X700397Y132896D01*
X700438Y132882D01*
X700479Y132864D01*
X700522Y132841D01*
X700528Y132838D01*
X700540Y132830D01*
X700563Y132812D01*
X700586Y132789D01*
X700616Y132760D01*
X700647Y132725D01*
X700677Y132681D01*
X700706Y132632D01*
Y132635D01*
X700709Y132640D01*
X700712Y132649D01*
X700717Y132661D01*
X700729Y132696D01*
X700749Y132737D01*
X700776Y132780D01*
X700808Y132830D01*
X700845Y132873D01*
X700892Y132914D01*
X700898Y132917D01*
X700915Y132929D01*
X700941Y132946D01*
X700976Y132963D01*
X701023Y132981D01*
X701072Y132998D01*
X701131Y133010D01*
X701195Y133013D01*
X701218D01*
X701247Y133010D01*
D02*
G37*
G36*
X735087Y129935D02*
X734805D01*
Y130183D01*
X735087D01*
Y129935D01*
D02*
G37*
G36*
X736819D02*
X735358D01*
Y130183D01*
X736819D01*
Y129935D01*
D02*
G37*
G36*
X736327Y131754D02*
X736339Y131751D01*
X736356Y131748D01*
X736379Y131743D01*
X736403Y131737D01*
X736461Y131716D01*
X736522Y131690D01*
X736589Y131652D01*
X736653Y131606D01*
X736682Y131580D01*
X736711Y131551D01*
X736714Y131548D01*
X736717Y131542D01*
X736723Y131533D01*
X736732Y131521D01*
X736743Y131507D01*
X736755Y131486D01*
X736766Y131463D01*
X736781Y131440D01*
X736807Y131382D01*
X736828Y131312D01*
X736845Y131236D01*
X736848Y131193D01*
X736851Y131149D01*
Y131146D01*
Y131134D01*
Y131120D01*
X736848Y131099D01*
X736845Y131073D01*
X736839Y131044D01*
X736833Y131012D01*
X736828Y130977D01*
X736804Y130899D01*
X736787Y130861D01*
X736769Y130820D01*
X736746Y130779D01*
X736720Y130742D01*
X736691Y130704D01*
X736656Y130669D01*
X736653Y130666D01*
X736647Y130660D01*
X736636Y130651D01*
X736621Y130640D01*
X736601Y130628D01*
X736575Y130611D01*
X736545Y130596D01*
X736513Y130578D01*
X736476Y130561D01*
X736432Y130546D01*
X736388Y130529D01*
X736336Y130517D01*
X736283Y130506D01*
X736222Y130497D01*
X736161Y130491D01*
X736094Y130488D01*
X736054D01*
X736033Y130491D01*
X736010D01*
X735984Y130494D01*
X735955Y130497D01*
X735891Y130506D01*
X735821Y130520D01*
X735751Y130538D01*
X735681Y130564D01*
X735678D01*
X735672Y130567D01*
X735664Y130573D01*
X735652Y130578D01*
X735620Y130596D01*
X735582Y130622D01*
X735538Y130657D01*
X735495Y130698D01*
X735451Y130747D01*
X735416Y130803D01*
Y130806D01*
X735413Y130811D01*
X735407Y130820D01*
X735402Y130832D01*
X735396Y130846D01*
X735387Y130864D01*
X735370Y130907D01*
X735355Y130957D01*
X735341Y131018D01*
X735329Y131082D01*
X735326Y131152D01*
Y131155D01*
Y131163D01*
Y131175D01*
X735329Y131193D01*
Y131210D01*
X735332Y131233D01*
X735341Y131289D01*
X735355Y131350D01*
X735378Y131414D01*
X735407Y131478D01*
X735448Y131539D01*
Y131542D01*
X735454Y131545D01*
X735472Y131562D01*
X735498Y131588D01*
X735536Y131620D01*
X735582Y131652D01*
X735640Y131684D01*
X735707Y131713D01*
X735786Y131734D01*
X735824Y131492D01*
X735821D01*
X735818Y131489D01*
X735800Y131486D01*
X735774Y131478D01*
X735742Y131463D01*
X735707Y131449D01*
X735669Y131425D01*
X735635Y131399D01*
X735605Y131370D01*
X735603Y131367D01*
X735594Y131356D01*
X735582Y131335D01*
X735568Y131312D01*
X735553Y131280D01*
X735541Y131245D01*
X735533Y131204D01*
X735530Y131160D01*
Y131158D01*
Y131152D01*
Y131143D01*
X735533Y131129D01*
X735536Y131096D01*
X735547Y131053D01*
X735562Y131006D01*
X735585Y130954D01*
X735620Y130904D01*
X735640Y130881D01*
X735664Y130858D01*
X735667D01*
X735669Y130852D01*
X735678Y130846D01*
X735690Y130840D01*
X735704Y130832D01*
X735722Y130820D01*
X735742Y130811D01*
X735766Y130800D01*
X735795Y130788D01*
X735827Y130779D01*
X735861Y130768D01*
X735899Y130759D01*
X735940Y130753D01*
X735987Y130747D01*
X736036Y130742D01*
X736118D01*
X736135Y130744D01*
X736161D01*
X736187Y130747D01*
X736251Y130756D01*
X736321Y130768D01*
X736394Y130788D01*
X736458Y130814D01*
X736490Y130832D01*
X736516Y130852D01*
X736522Y130858D01*
X736537Y130872D01*
X736557Y130899D01*
X736580Y130931D01*
X736607Y130974D01*
X736627Y131024D01*
X736641Y131082D01*
X736644Y131114D01*
X736647Y131146D01*
Y131149D01*
Y131152D01*
X736644Y131169D01*
X736641Y131198D01*
X736636Y131230D01*
X736627Y131268D01*
X736609Y131309D01*
X736589Y131350D01*
X736560Y131387D01*
X736557Y131393D01*
X736543Y131402D01*
X736522Y131420D01*
X736490Y131440D01*
X736452Y131460D01*
X736406Y131483D01*
X736347Y131501D01*
X736283Y131513D01*
X736315Y131757D01*
X736318D01*
X736327Y131754D01*
D02*
G37*
G36*
X736819Y129307D02*
X735864D01*
X735832Y129304D01*
X735792Y129298D01*
X735748Y129287D01*
X735704Y129272D01*
X735661Y129252D01*
X735626Y129225D01*
X735623Y129223D01*
X735611Y129211D01*
X735597Y129193D01*
X735582Y129167D01*
X735565Y129135D01*
X735553Y129097D01*
X735541Y129051D01*
X735538Y128998D01*
Y128993D01*
Y128981D01*
X735541Y128961D01*
X735544Y128931D01*
X735553Y128902D01*
X735562Y128867D01*
X735576Y128832D01*
X735597Y128795D01*
X735600Y128792D01*
X735608Y128780D01*
X735620Y128763D01*
X735637Y128742D01*
X735661Y128719D01*
X735687Y128696D01*
X735719Y128675D01*
X735754Y128658D01*
X735760Y128655D01*
X735771Y128652D01*
X735795Y128646D01*
X735824Y128638D01*
X735861Y128629D01*
X735908Y128623D01*
X735960Y128620D01*
X736022Y128617D01*
X736819D01*
Y128370D01*
X734805D01*
Y128617D01*
X735527D01*
X735524Y128620D01*
X735518Y128626D01*
X735509Y128635D01*
X735495Y128649D01*
X735480Y128664D01*
X735463Y128684D01*
X735445Y128710D01*
X735425Y128736D01*
X735407Y128766D01*
X735390Y128798D01*
X735358Y128873D01*
X735344Y128914D01*
X735335Y128958D01*
X735329Y129004D01*
X735326Y129051D01*
Y129054D01*
Y129057D01*
Y129065D01*
Y129077D01*
X735329Y129109D01*
X735335Y129147D01*
X735341Y129191D01*
X735352Y129237D01*
X735370Y129284D01*
X735390Y129330D01*
X735393Y129336D01*
X735402Y129350D01*
X735416Y129371D01*
X735437Y129397D01*
X735463Y129423D01*
X735492Y129452D01*
X735527Y129479D01*
X735568Y129502D01*
X735573Y129505D01*
X735588Y129511D01*
X735614Y129519D01*
X735652Y129528D01*
X735699Y129537D01*
X735754Y129545D01*
X735821Y129551D01*
X735896Y129554D01*
X736819D01*
Y129307D01*
D02*
G37*
G36*
X736196Y123691D02*
X736214Y123685D01*
X736237Y123676D01*
X736263Y123667D01*
X736295Y123656D01*
X736330Y123641D01*
X736368Y123624D01*
X736449Y123583D01*
X736531Y123530D01*
X736572Y123498D01*
X736612Y123467D01*
X736647Y123432D01*
X736682Y123391D01*
X736685Y123388D01*
X736691Y123382D01*
X736697Y123368D01*
X736708Y123353D01*
X736723Y123330D01*
X736737Y123306D01*
X736752Y123274D01*
X736766Y123242D01*
X736784Y123205D01*
X736798Y123164D01*
X736813Y123120D01*
X736828Y123074D01*
X736839Y123024D01*
X736845Y122972D01*
X736851Y122916D01*
X736854Y122858D01*
Y122855D01*
Y122844D01*
Y122826D01*
X736851Y122803D01*
Y122777D01*
X736848Y122745D01*
X736842Y122710D01*
X736836Y122669D01*
X736822Y122585D01*
X736798Y122497D01*
X736766Y122410D01*
X736746Y122369D01*
X736723Y122329D01*
X736720Y122326D01*
X736717Y122320D01*
X736708Y122308D01*
X736697Y122297D01*
X736685Y122279D01*
X736668Y122259D01*
X736647Y122236D01*
X736624Y122212D01*
X736598Y122189D01*
X736572Y122163D01*
X736505Y122110D01*
X736426Y122061D01*
X736339Y122017D01*
X736336D01*
X736327Y122011D01*
X736313Y122009D01*
X736295Y122000D01*
X736272Y121994D01*
X736243Y121985D01*
X736211Y121974D01*
X736176Y121965D01*
X736138Y121956D01*
X736094Y121945D01*
X736004Y121930D01*
X735902Y121918D01*
X735798Y121913D01*
X735766D01*
X735745Y121915D01*
X735716D01*
X735687Y121918D01*
X735649Y121921D01*
X735611Y121927D01*
X735527Y121942D01*
X735434Y121962D01*
X735341Y121991D01*
X735250Y122032D01*
X735248Y122035D01*
X735239Y122038D01*
X735227Y122044D01*
X735213Y122055D01*
X735192Y122067D01*
X735169Y122081D01*
X735117Y122119D01*
X735058Y122169D01*
X735000Y122227D01*
X734942Y122294D01*
X734893Y122372D01*
X734890Y122375D01*
X734887Y122384D01*
X734881Y122396D01*
X734872Y122410D01*
X734863Y122433D01*
X734855Y122457D01*
X734843Y122486D01*
X734831Y122518D01*
X734820Y122553D01*
X734808Y122591D01*
X734791Y122672D01*
X734776Y122765D01*
X734770Y122861D01*
Y122864D01*
Y122876D01*
Y122890D01*
X734773Y122911D01*
X734776Y122937D01*
X734779Y122969D01*
X734782Y123001D01*
X734791Y123039D01*
X734808Y123117D01*
X734834Y123205D01*
X734852Y123248D01*
X734872Y123289D01*
X734898Y123330D01*
X734925Y123371D01*
X734927Y123373D01*
X734930Y123379D01*
X734939Y123391D01*
X734954Y123405D01*
X734968Y123420D01*
X734988Y123440D01*
X735012Y123461D01*
X735035Y123484D01*
X735064Y123507D01*
X735099Y123530D01*
X735134Y123557D01*
X735172Y123580D01*
X735216Y123600D01*
X735259Y123624D01*
X735306Y123641D01*
X735358Y123659D01*
X735419Y123397D01*
X735416D01*
X735410Y123394D01*
X735399Y123388D01*
X735384Y123382D01*
X735367Y123376D01*
X735344Y123368D01*
X735297Y123344D01*
X735245Y123315D01*
X735192Y123280D01*
X735143Y123237D01*
X735099Y123190D01*
X735093Y123184D01*
X735082Y123167D01*
X735067Y123138D01*
X735047Y123100D01*
X735029Y123050D01*
X735012Y122995D01*
X735000Y122928D01*
X734997Y122855D01*
Y122853D01*
Y122844D01*
Y122832D01*
X735000Y122818D01*
Y122797D01*
X735003Y122774D01*
X735012Y122719D01*
X735023Y122658D01*
X735044Y122593D01*
X735073Y122527D01*
X735111Y122466D01*
Y122462D01*
X735117Y122460D01*
X735131Y122439D01*
X735154Y122413D01*
X735189Y122381D01*
X735233Y122343D01*
X735282Y122308D01*
X735344Y122276D01*
X735410Y122247D01*
X735413D01*
X735419Y122244D01*
X735428Y122241D01*
X735442Y122239D01*
X735460Y122233D01*
X735480Y122227D01*
X735530Y122218D01*
X735588Y122206D01*
X735652Y122195D01*
X735722Y122189D01*
X735798Y122186D01*
X735841D01*
X735861Y122189D01*
X735888D01*
X735917Y122192D01*
X735949Y122195D01*
X736019Y122204D01*
X736094Y122218D01*
X736170Y122236D01*
X736246Y122259D01*
X736248D01*
X736254Y122262D01*
X736263Y122268D01*
X736278Y122273D01*
X736313Y122291D01*
X736353Y122317D01*
X736400Y122349D01*
X736449Y122390D01*
X736493Y122436D01*
X736534Y122492D01*
Y122495D01*
X736537Y122500D01*
X736543Y122509D01*
X736548Y122521D01*
X736554Y122535D01*
X736563Y122553D01*
X736580Y122593D01*
X736598Y122646D01*
X736612Y122704D01*
X736624Y122768D01*
X736627Y122835D01*
Y122838D01*
Y122844D01*
Y122855D01*
X736624Y122873D01*
Y122893D01*
X736621Y122914D01*
X736609Y122966D01*
X736595Y123027D01*
X736572Y123088D01*
X736540Y123152D01*
X736522Y123184D01*
X736499Y123213D01*
X736496Y123216D01*
X736493Y123219D01*
X736484Y123228D01*
X736476Y123240D01*
X736461Y123251D01*
X736444Y123266D01*
X736426Y123283D01*
X736403Y123298D01*
X736377Y123315D01*
X736347Y123336D01*
X736318Y123353D01*
X736283Y123371D01*
X736246Y123385D01*
X736205Y123400D01*
X736161Y123414D01*
X736115Y123426D01*
X736182Y123694D01*
X736185D01*
X736196Y123691D01*
D02*
G37*
G36*
X736286Y125530D02*
X736321Y125524D01*
X736362Y125518D01*
X736406Y125506D01*
X736452Y125492D01*
X736499Y125471D01*
X736505Y125469D01*
X736519Y125460D01*
X736540Y125448D01*
X736569Y125431D01*
X736598Y125408D01*
X736630Y125384D01*
X736662Y125355D01*
X736688Y125323D01*
X736691Y125320D01*
X736700Y125309D01*
X736711Y125288D01*
X736723Y125262D01*
X736740Y125230D01*
X736758Y125192D01*
X736772Y125151D01*
X736787Y125102D01*
Y125096D01*
X736793Y125079D01*
X736796Y125049D01*
X736801Y125012D01*
X736807Y124965D01*
X736813Y124910D01*
X736816Y124849D01*
X736819Y124779D01*
Y124011D01*
X734805D01*
Y124764D01*
Y124767D01*
Y124776D01*
Y124788D01*
Y124802D01*
X734808Y124823D01*
Y124846D01*
X734814Y124898D01*
X734820Y124956D01*
X734831Y125017D01*
X734846Y125079D01*
X734866Y125134D01*
Y125137D01*
X734869Y125140D01*
X734878Y125157D01*
X734893Y125183D01*
X734913Y125213D01*
X734939Y125247D01*
X734971Y125285D01*
X735012Y125320D01*
X735055Y125352D01*
X735061Y125355D01*
X735079Y125364D01*
X735102Y125378D01*
X735137Y125393D01*
X735178Y125408D01*
X735221Y125422D01*
X735271Y125431D01*
X735320Y125434D01*
X735341D01*
X735367Y125431D01*
X735399Y125425D01*
X735437Y125416D01*
X735477Y125402D01*
X735518Y125384D01*
X735562Y125361D01*
X735568Y125358D01*
X735579Y125349D01*
X735603Y125332D01*
X735626Y125309D01*
X735655Y125279D01*
X735687Y125244D01*
X735716Y125201D01*
X735745Y125151D01*
Y125154D01*
X735748Y125160D01*
X735751Y125169D01*
X735757Y125180D01*
X735768Y125215D01*
X735789Y125256D01*
X735815Y125300D01*
X735847Y125349D01*
X735885Y125393D01*
X735931Y125434D01*
X735937Y125437D01*
X735955Y125448D01*
X735981Y125466D01*
X736016Y125483D01*
X736062Y125501D01*
X736112Y125518D01*
X736170Y125530D01*
X736234Y125533D01*
X736257D01*
X736286Y125530D01*
D02*
G37*
G36*
X735044Y127462D02*
X736819D01*
Y127194D01*
X735044D01*
Y126531D01*
X734805D01*
Y128125D01*
X735044D01*
Y127462D01*
D02*
G37*
G36*
X554642Y131401D02*
X554432D01*
X554435Y131398D01*
X554444Y131392D01*
X554456Y131383D01*
X554470Y131372D01*
X554488Y131354D01*
X554508Y131334D01*
X554531Y131311D01*
X554555Y131282D01*
X554575Y131253D01*
X554598Y131218D01*
X554619Y131180D01*
X554636Y131139D01*
X554651Y131092D01*
X554662Y131046D01*
X554671Y130993D01*
X554674Y130938D01*
Y130935D01*
Y130932D01*
Y130915D01*
X554671Y130892D01*
X554668Y130860D01*
X554662Y130822D01*
X554654Y130781D01*
X554642Y130737D01*
X554625Y130697D01*
X554622Y130691D01*
X554616Y130679D01*
X554607Y130659D01*
X554593Y130636D01*
X554575Y130606D01*
X554552Y130580D01*
X554528Y130554D01*
X554499Y130531D01*
X554496Y130528D01*
X554485Y130522D01*
X554470Y130513D01*
X554450Y130499D01*
X554421Y130487D01*
X554392Y130475D01*
X554357Y130461D01*
X554319Y130452D01*
X554316D01*
X554304Y130449D01*
X554287Y130446D01*
X554264Y130444D01*
X554229D01*
X554188Y130441D01*
X554139Y130438D01*
X553181D01*
Y130685D01*
X554118D01*
X554150Y130688D01*
X554188Y130691D01*
X554226Y130697D01*
X554261Y130705D01*
X554293Y130714D01*
X554296D01*
X554304Y130720D01*
X554319Y130729D01*
X554336Y130737D01*
X554354Y130752D01*
X554374Y130769D01*
X554395Y130793D01*
X554412Y130819D01*
X554415Y130822D01*
X554421Y130831D01*
X554427Y130848D01*
X554435Y130868D01*
X554444Y130892D01*
X554453Y130921D01*
X554456Y130956D01*
X554459Y130991D01*
Y130993D01*
Y130996D01*
Y131005D01*
X554456Y131017D01*
X554453Y131046D01*
X554447Y131084D01*
X554432Y131124D01*
X554415Y131171D01*
X554392Y131218D01*
X554357Y131261D01*
X554351Y131267D01*
X554336Y131279D01*
X554325Y131287D01*
X554310Y131296D01*
X554293Y131308D01*
X554272Y131316D01*
X554249Y131328D01*
X554220Y131340D01*
X554188Y131349D01*
X554153Y131357D01*
X554115Y131363D01*
X554074Y131369D01*
X554025Y131375D01*
X553181D01*
Y131622D01*
X554642D01*
Y131401D01*
D02*
G37*
G36*
X555195Y132783D02*
X554045D01*
X554642Y132198D01*
Y131875D01*
X554098Y132437D01*
X553181Y131820D01*
Y132125D01*
X553926Y132611D01*
X553760Y132783D01*
X553181D01*
Y133030D01*
X555195D01*
Y132783D01*
D02*
G37*
G36*
X553967Y134509D02*
X553990D01*
X554016Y134506D01*
X554045Y134503D01*
X554109Y134494D01*
X554179Y134480D01*
X554249Y134462D01*
X554319Y134436D01*
X554322D01*
X554328Y134433D01*
X554336Y134427D01*
X554348Y134422D01*
X554380Y134404D01*
X554418Y134378D01*
X554461Y134343D01*
X554505Y134302D01*
X554549Y134253D01*
X554584Y134197D01*
Y134195D01*
X554587Y134189D01*
X554593Y134180D01*
X554598Y134168D01*
X554604Y134154D01*
X554613Y134136D01*
X554630Y134093D01*
X554645Y134043D01*
X554659Y133982D01*
X554671Y133918D01*
X554674Y133848D01*
Y133845D01*
Y133837D01*
Y133825D01*
X554671Y133808D01*
Y133790D01*
X554668Y133767D01*
X554659Y133711D01*
X554645Y133650D01*
X554622Y133586D01*
X554593Y133522D01*
X554552Y133461D01*
Y133458D01*
X554546Y133455D01*
X554528Y133438D01*
X554502Y133412D01*
X554464Y133380D01*
X554418Y133348D01*
X554360Y133316D01*
X554293Y133287D01*
X554214Y133266D01*
X554176Y133508D01*
X554179D01*
X554182Y133511D01*
X554200Y133514D01*
X554226Y133522D01*
X554258Y133537D01*
X554293Y133551D01*
X554331Y133575D01*
X554365Y133601D01*
X554395Y133630D01*
X554397Y133633D01*
X554406Y133644D01*
X554418Y133665D01*
X554432Y133688D01*
X554447Y133720D01*
X554459Y133755D01*
X554467Y133796D01*
X554470Y133839D01*
Y133842D01*
Y133848D01*
Y133857D01*
X554467Y133871D01*
X554464Y133904D01*
X554453Y133947D01*
X554438Y133994D01*
X554415Y134046D01*
X554380Y134096D01*
X554360Y134119D01*
X554336Y134142D01*
X554333D01*
X554331Y134148D01*
X554322Y134154D01*
X554310Y134160D01*
X554296Y134168D01*
X554278Y134180D01*
X554258Y134189D01*
X554235Y134200D01*
X554205Y134212D01*
X554173Y134221D01*
X554139Y134232D01*
X554101Y134241D01*
X554060Y134247D01*
X554013Y134253D01*
X553964Y134258D01*
X553882D01*
X553865Y134256D01*
X553839D01*
X553813Y134253D01*
X553749Y134244D01*
X553679Y134232D01*
X553606Y134212D01*
X553542Y134186D01*
X553510Y134168D01*
X553484Y134148D01*
X553478Y134142D01*
X553463Y134128D01*
X553443Y134101D01*
X553420Y134069D01*
X553394Y134026D01*
X553373Y133976D01*
X553359Y133918D01*
X553356Y133886D01*
X553353Y133854D01*
Y133851D01*
Y133848D01*
X553356Y133831D01*
X553359Y133802D01*
X553364Y133770D01*
X553373Y133732D01*
X553391Y133691D01*
X553411Y133650D01*
X553440Y133613D01*
X553443Y133607D01*
X553457Y133598D01*
X553478Y133581D01*
X553510Y133560D01*
X553548Y133540D01*
X553594Y133517D01*
X553652Y133499D01*
X553717Y133487D01*
X553685Y133243D01*
X553682D01*
X553673Y133246D01*
X553661Y133249D01*
X553644Y133252D01*
X553620Y133257D01*
X553597Y133263D01*
X553539Y133284D01*
X553478Y133310D01*
X553411Y133348D01*
X553347Y133394D01*
X553318Y133420D01*
X553289Y133449D01*
X553286Y133452D01*
X553283Y133458D01*
X553277Y133467D01*
X553268Y133479D01*
X553257Y133493D01*
X553245Y133514D01*
X553233Y133537D01*
X553219Y133560D01*
X553193Y133618D01*
X553172Y133688D01*
X553155Y133764D01*
X553152Y133808D01*
X553149Y133851D01*
Y133854D01*
Y133866D01*
Y133880D01*
X553152Y133901D01*
X553155Y133927D01*
X553161Y133956D01*
X553167Y133988D01*
X553172Y134023D01*
X553196Y134101D01*
X553213Y134139D01*
X553231Y134180D01*
X553254Y134221D01*
X553280Y134258D01*
X553309Y134296D01*
X553344Y134331D01*
X553347Y134334D01*
X553353Y134340D01*
X553364Y134349D01*
X553379Y134360D01*
X553399Y134372D01*
X553426Y134389D01*
X553455Y134404D01*
X553487Y134422D01*
X553524Y134439D01*
X553568Y134453D01*
X553612Y134471D01*
X553664Y134483D01*
X553717Y134494D01*
X553778Y134503D01*
X553839Y134509D01*
X553906Y134512D01*
X553946D01*
X553967Y134509D01*
D02*
G37*
G36*
X553655Y126937D02*
X553650D01*
X553632Y126931D01*
X553603Y126925D01*
X553571Y126914D01*
X553536Y126899D01*
X553498Y126882D01*
X553461Y126856D01*
X553428Y126823D01*
X553426Y126818D01*
X553417Y126806D01*
X553405Y126783D01*
X553391Y126754D01*
X553376Y126716D01*
X553364Y126672D01*
X553356Y126620D01*
X553353Y126559D01*
Y126556D01*
Y126550D01*
Y126541D01*
Y126530D01*
X553356Y126500D01*
X553362Y126463D01*
X553370Y126422D01*
X553382Y126378D01*
X553396Y126340D01*
X553420Y126305D01*
X553423Y126303D01*
X553431Y126291D01*
X553446Y126279D01*
X553466Y126262D01*
X553490Y126247D01*
X553519Y126233D01*
X553548Y126224D01*
X553583Y126221D01*
X553597D01*
X553612Y126224D01*
X553632Y126230D01*
X553652Y126239D01*
X553673Y126253D01*
X553696Y126271D01*
X553714Y126297D01*
X553717Y126300D01*
X553719Y126308D01*
X553728Y126323D01*
X553737Y126346D01*
X553749Y126381D01*
X553757Y126401D01*
X553763Y126425D01*
X553772Y126451D01*
X553781Y126480D01*
X553789Y126512D01*
X553798Y126550D01*
Y126553D01*
X553801Y126562D01*
X553804Y126576D01*
X553810Y126594D01*
X553816Y126617D01*
X553824Y126643D01*
X553839Y126698D01*
X553859Y126762D01*
X553877Y126823D01*
X553897Y126882D01*
X553909Y126908D01*
X553917Y126928D01*
X553920Y126934D01*
X553926Y126946D01*
X553938Y126963D01*
X553952Y126986D01*
X553973Y127013D01*
X553996Y127039D01*
X554022Y127065D01*
X554054Y127088D01*
X554057Y127091D01*
X554069Y127097D01*
X554089Y127106D01*
X554112Y127114D01*
X554141Y127123D01*
X554176Y127132D01*
X554211Y127138D01*
X554252Y127141D01*
X554269D01*
X554287Y127138D01*
X554313Y127135D01*
X554339Y127129D01*
X554371Y127123D01*
X554400Y127112D01*
X554432Y127097D01*
X554435Y127094D01*
X554447Y127088D01*
X554461Y127079D01*
X554482Y127065D01*
X554502Y127048D01*
X554528Y127027D01*
X554552Y127004D01*
X554572Y126975D01*
X554575Y126972D01*
X554578Y126963D01*
X554587Y126952D01*
X554595Y126934D01*
X554607Y126911D01*
X554619Y126885D01*
X554630Y126853D01*
X554642Y126818D01*
X554645Y126812D01*
X554648Y126800D01*
X554654Y126780D01*
X554659Y126754D01*
X554665Y126722D01*
X554668Y126687D01*
X554674Y126646D01*
Y126605D01*
Y126602D01*
Y126596D01*
Y126588D01*
Y126576D01*
X554671Y126544D01*
X554668Y126500D01*
X554662Y126454D01*
X554651Y126404D01*
X554639Y126352D01*
X554622Y126303D01*
Y126300D01*
X554619Y126297D01*
X554613Y126282D01*
X554601Y126259D01*
X554587Y126230D01*
X554566Y126198D01*
X554543Y126166D01*
X554517Y126137D01*
X554488Y126110D01*
X554485Y126108D01*
X554473Y126102D01*
X554453Y126090D01*
X554429Y126076D01*
X554395Y126061D01*
X554357Y126047D01*
X554313Y126035D01*
X554264Y126023D01*
X554232Y126265D01*
X554237D01*
X554249Y126268D01*
X554269Y126274D01*
X554296Y126282D01*
X554322Y126297D01*
X554351Y126314D01*
X554380Y126335D01*
X554406Y126364D01*
X554409Y126367D01*
X554415Y126378D01*
X554427Y126396D01*
X554438Y126422D01*
X554450Y126451D01*
X554461Y126489D01*
X554467Y126535D01*
X554470Y126585D01*
Y126588D01*
Y126594D01*
Y126602D01*
Y126614D01*
X554467Y126643D01*
X554464Y126681D01*
X554456Y126719D01*
X554447Y126759D01*
X554432Y126797D01*
X554412Y126829D01*
X554409Y126832D01*
X554403Y126841D01*
X554392Y126853D01*
X554374Y126864D01*
X554357Y126879D01*
X554333Y126890D01*
X554307Y126899D01*
X554281Y126902D01*
X554272D01*
X554264Y126899D01*
X554252D01*
X554223Y126890D01*
X554194Y126873D01*
X554191Y126870D01*
X554188Y126867D01*
X554179Y126861D01*
X554171Y126850D01*
X554162Y126838D01*
X554150Y126821D01*
X554141Y126800D01*
X554130Y126777D01*
Y126774D01*
X554127Y126768D01*
X554124Y126757D01*
X554115Y126736D01*
X554107Y126707D01*
X554098Y126669D01*
X554089Y126646D01*
X554083Y126620D01*
X554074Y126591D01*
X554066Y126559D01*
Y126556D01*
X554063Y126547D01*
X554060Y126532D01*
X554054Y126515D01*
X554048Y126495D01*
X554042Y126468D01*
X554025Y126413D01*
X554007Y126352D01*
X553987Y126291D01*
X553967Y126236D01*
X553958Y126212D01*
X553949Y126192D01*
X553946Y126186D01*
X553941Y126174D01*
X553932Y126157D01*
X553917Y126131D01*
X553900Y126105D01*
X553877Y126078D01*
X553850Y126052D01*
X553821Y126029D01*
X553818Y126026D01*
X553807Y126020D01*
X553789Y126009D01*
X553763Y125997D01*
X553731Y125988D01*
X553696Y125977D01*
X553655Y125971D01*
X553609Y125968D01*
X553588D01*
X553565Y125971D01*
X553533Y125977D01*
X553498Y125985D01*
X553461Y126000D01*
X553417Y126017D01*
X553376Y126041D01*
X553370Y126044D01*
X553359Y126055D01*
X553338Y126070D01*
X553315Y126093D01*
X553289Y126125D01*
X553260Y126160D01*
X553233Y126201D01*
X553207Y126250D01*
Y126253D01*
X553204Y126256D01*
X553199Y126274D01*
X553190Y126303D01*
X553178Y126340D01*
X553167Y126387D01*
X553158Y126439D01*
X553152Y126495D01*
X553149Y126559D01*
Y126562D01*
Y126570D01*
Y126585D01*
X553152Y126605D01*
Y126628D01*
X553155Y126658D01*
X553158Y126687D01*
X553164Y126719D01*
X553178Y126788D01*
X553199Y126861D01*
X553228Y126931D01*
X553245Y126963D01*
X553265Y126992D01*
X553268Y126995D01*
X553271Y126998D01*
X553289Y127015D01*
X553315Y127042D01*
X553356Y127071D01*
X553405Y127103D01*
X553463Y127135D01*
X553536Y127161D01*
X553618Y127181D01*
X553655Y126937D01*
D02*
G37*
G36*
Y128345D02*
X553650D01*
X553632Y128340D01*
X553603Y128334D01*
X553571Y128322D01*
X553536Y128308D01*
X553498Y128290D01*
X553461Y128264D01*
X553428Y128232D01*
X553426Y128226D01*
X553417Y128214D01*
X553405Y128191D01*
X553391Y128162D01*
X553376Y128124D01*
X553364Y128081D01*
X553356Y128028D01*
X553353Y127967D01*
Y127964D01*
Y127958D01*
Y127950D01*
Y127938D01*
X553356Y127909D01*
X553362Y127871D01*
X553370Y127830D01*
X553382Y127787D01*
X553396Y127749D01*
X553420Y127714D01*
X553423Y127711D01*
X553431Y127699D01*
X553446Y127688D01*
X553466Y127670D01*
X553490Y127656D01*
X553519Y127641D01*
X553548Y127632D01*
X553583Y127629D01*
X553597D01*
X553612Y127632D01*
X553632Y127638D01*
X553652Y127647D01*
X553673Y127662D01*
X553696Y127679D01*
X553714Y127705D01*
X553717Y127708D01*
X553719Y127717D01*
X553728Y127731D01*
X553737Y127755D01*
X553749Y127790D01*
X553757Y127810D01*
X553763Y127833D01*
X553772Y127859D01*
X553781Y127889D01*
X553789Y127920D01*
X553798Y127958D01*
Y127961D01*
X553801Y127970D01*
X553804Y127984D01*
X553810Y128002D01*
X553816Y128025D01*
X553824Y128051D01*
X553839Y128107D01*
X553859Y128171D01*
X553877Y128232D01*
X553897Y128290D01*
X553909Y128316D01*
X553917Y128337D01*
X553920Y128342D01*
X553926Y128354D01*
X553938Y128372D01*
X553952Y128395D01*
X553973Y128421D01*
X553996Y128447D01*
X554022Y128473D01*
X554054Y128497D01*
X554057Y128500D01*
X554069Y128505D01*
X554089Y128514D01*
X554112Y128523D01*
X554141Y128532D01*
X554176Y128540D01*
X554211Y128546D01*
X554252Y128549D01*
X554269D01*
X554287Y128546D01*
X554313Y128543D01*
X554339Y128537D01*
X554371Y128532D01*
X554400Y128520D01*
X554432Y128505D01*
X554435Y128503D01*
X554447Y128497D01*
X554461Y128488D01*
X554482Y128473D01*
X554502Y128456D01*
X554528Y128436D01*
X554552Y128412D01*
X554572Y128383D01*
X554575Y128380D01*
X554578Y128372D01*
X554587Y128360D01*
X554595Y128342D01*
X554607Y128319D01*
X554619Y128293D01*
X554630Y128261D01*
X554642Y128226D01*
X554645Y128220D01*
X554648Y128209D01*
X554654Y128188D01*
X554659Y128162D01*
X554665Y128130D01*
X554668Y128095D01*
X554674Y128054D01*
Y128014D01*
Y128011D01*
Y128005D01*
Y127996D01*
Y127984D01*
X554671Y127953D01*
X554668Y127909D01*
X554662Y127862D01*
X554651Y127813D01*
X554639Y127761D01*
X554622Y127711D01*
Y127708D01*
X554619Y127705D01*
X554613Y127691D01*
X554601Y127667D01*
X554587Y127638D01*
X554566Y127606D01*
X554543Y127574D01*
X554517Y127545D01*
X554488Y127519D01*
X554485Y127516D01*
X554473Y127510D01*
X554453Y127499D01*
X554429Y127484D01*
X554395Y127470D01*
X554357Y127455D01*
X554313Y127443D01*
X554264Y127432D01*
X554232Y127673D01*
X554237D01*
X554249Y127676D01*
X554269Y127682D01*
X554296Y127691D01*
X554322Y127705D01*
X554351Y127723D01*
X554380Y127743D01*
X554406Y127772D01*
X554409Y127775D01*
X554415Y127787D01*
X554427Y127804D01*
X554438Y127830D01*
X554450Y127859D01*
X554461Y127897D01*
X554467Y127944D01*
X554470Y127993D01*
Y127996D01*
Y128002D01*
Y128011D01*
Y128022D01*
X554467Y128051D01*
X554464Y128089D01*
X554456Y128127D01*
X554447Y128168D01*
X554432Y128206D01*
X554412Y128238D01*
X554409Y128241D01*
X554403Y128249D01*
X554392Y128261D01*
X554374Y128273D01*
X554357Y128287D01*
X554333Y128299D01*
X554307Y128308D01*
X554281Y128311D01*
X554272D01*
X554264Y128308D01*
X554252D01*
X554223Y128299D01*
X554194Y128281D01*
X554191Y128279D01*
X554188Y128276D01*
X554179Y128270D01*
X554171Y128258D01*
X554162Y128246D01*
X554150Y128229D01*
X554141Y128209D01*
X554130Y128185D01*
Y128182D01*
X554127Y128177D01*
X554124Y128165D01*
X554115Y128145D01*
X554107Y128115D01*
X554098Y128078D01*
X554089Y128054D01*
X554083Y128028D01*
X554074Y127999D01*
X554066Y127967D01*
Y127964D01*
X554063Y127955D01*
X554060Y127941D01*
X554054Y127923D01*
X554048Y127903D01*
X554042Y127877D01*
X554025Y127822D01*
X554007Y127761D01*
X553987Y127699D01*
X553967Y127644D01*
X553958Y127621D01*
X553949Y127600D01*
X553946Y127595D01*
X553941Y127583D01*
X553932Y127566D01*
X553917Y127539D01*
X553900Y127513D01*
X553877Y127487D01*
X553850Y127461D01*
X553821Y127437D01*
X553818Y127435D01*
X553807Y127429D01*
X553789Y127417D01*
X553763Y127406D01*
X553731Y127397D01*
X553696Y127385D01*
X553655Y127379D01*
X553609Y127376D01*
X553588D01*
X553565Y127379D01*
X553533Y127385D01*
X553498Y127394D01*
X553461Y127408D01*
X553417Y127426D01*
X553376Y127449D01*
X553370Y127452D01*
X553359Y127464D01*
X553338Y127478D01*
X553315Y127501D01*
X553289Y127533D01*
X553260Y127568D01*
X553233Y127609D01*
X553207Y127659D01*
Y127662D01*
X553204Y127664D01*
X553199Y127682D01*
X553190Y127711D01*
X553178Y127749D01*
X553167Y127795D01*
X553158Y127848D01*
X553152Y127903D01*
X553149Y127967D01*
Y127970D01*
Y127979D01*
Y127993D01*
X553152Y128014D01*
Y128037D01*
X553155Y128066D01*
X553158Y128095D01*
X553164Y128127D01*
X553178Y128197D01*
X553199Y128270D01*
X553228Y128340D01*
X553245Y128372D01*
X553265Y128401D01*
X553268Y128404D01*
X553271Y128407D01*
X553289Y128424D01*
X553315Y128450D01*
X553356Y128479D01*
X553405Y128511D01*
X553463Y128543D01*
X553536Y128569D01*
X553618Y128590D01*
X553655Y128345D01*
D02*
G37*
G36*
X553958Y130138D02*
X553990Y130135D01*
X554025Y130132D01*
X554066Y130126D01*
X554107Y130118D01*
X554200Y130094D01*
X554246Y130080D01*
X554296Y130062D01*
X554342Y130039D01*
X554386Y130013D01*
X554429Y129984D01*
X554470Y129952D01*
X554473Y129949D01*
X554479Y129943D01*
X554488Y129931D01*
X554502Y129917D01*
X554517Y129899D01*
X554534Y129876D01*
X554555Y129850D01*
X554572Y129818D01*
X554593Y129786D01*
X554610Y129748D01*
X554627Y129707D01*
X554642Y129664D01*
X554657Y129617D01*
X554665Y129568D01*
X554671Y129515D01*
X554674Y129460D01*
Y129457D01*
Y129448D01*
Y129431D01*
X554671Y129410D01*
X554668Y129387D01*
X554662Y129358D01*
X554657Y129326D01*
X554648Y129288D01*
X554639Y129253D01*
X554625Y129213D01*
X554610Y129175D01*
X554590Y129134D01*
X554566Y129093D01*
X554540Y129052D01*
X554508Y129015D01*
X554473Y128980D01*
X554470Y128977D01*
X554464Y128971D01*
X554453Y128962D01*
X554435Y128951D01*
X554415Y128936D01*
X554392Y128922D01*
X554363Y128904D01*
X554328Y128887D01*
X554290Y128869D01*
X554249Y128852D01*
X554203Y128837D01*
X554153Y128823D01*
X554098Y128811D01*
X554039Y128802D01*
X553978Y128796D01*
X553911Y128794D01*
X553877D01*
X553848Y128796D01*
Y129888D01*
X553836D01*
X553824Y129885D01*
X553807D01*
X553786Y129882D01*
X553763Y129876D01*
X553711Y129867D01*
X553652Y129850D01*
X553588Y129827D01*
X553530Y129795D01*
X553478Y129754D01*
Y129751D01*
X553472Y129748D01*
X553457Y129730D01*
X553437Y129704D01*
X553417Y129669D01*
X553394Y129623D01*
X553373Y129570D01*
X553359Y129512D01*
X553356Y129480D01*
X553353Y129445D01*
Y129443D01*
Y129440D01*
Y129422D01*
X553356Y129396D01*
X553362Y129364D01*
X553370Y129329D01*
X553382Y129288D01*
X553399Y129250D01*
X553423Y129213D01*
X553426Y129210D01*
X553437Y129195D01*
X553455Y129178D01*
X553478Y129157D01*
X553510Y129134D01*
X553551Y129108D01*
X553597Y129082D01*
X553652Y129058D01*
X553620Y128802D01*
X553618D01*
X553612Y128805D01*
X553600Y128808D01*
X553583Y128814D01*
X553565Y128823D01*
X553542Y128831D01*
X553492Y128855D01*
X553437Y128884D01*
X553379Y128925D01*
X553324Y128971D01*
X553271Y129029D01*
Y129032D01*
X553265Y129038D01*
X553260Y129047D01*
X553251Y129058D01*
X553242Y129076D01*
X553233Y129093D01*
X553222Y129116D01*
X553210Y129143D01*
X553199Y129172D01*
X553187Y129201D01*
X553169Y129274D01*
X553155Y129355D01*
X553149Y129445D01*
Y129448D01*
Y129460D01*
Y129477D01*
X553152Y129498D01*
X553155Y129524D01*
X553161Y129556D01*
X553167Y129591D01*
X553172Y129629D01*
X553196Y129710D01*
X553213Y129754D01*
X553231Y129795D01*
X553254Y129838D01*
X553280Y129879D01*
X553309Y129917D01*
X553344Y129955D01*
X553347Y129957D01*
X553353Y129963D01*
X553364Y129972D01*
X553382Y129984D01*
X553402Y129998D01*
X553426Y130013D01*
X553455Y130030D01*
X553487Y130048D01*
X553524Y130065D01*
X553565Y130083D01*
X553612Y130097D01*
X553661Y130112D01*
X553714Y130123D01*
X553772Y130132D01*
X553833Y130138D01*
X553897Y130141D01*
X553932D01*
X553958Y130138D01*
D02*
G37*
G36*
X554642Y134817D02*
X553181D01*
Y135065D01*
X554642D01*
Y134817D01*
D02*
G37*
G36*
X555195Y140236D02*
Y140233D01*
Y140224D01*
Y140212D01*
Y140198D01*
X555192Y140177D01*
Y140154D01*
X555186Y140102D01*
X555180Y140044D01*
X555169Y139982D01*
X555154Y139921D01*
X555134Y139866D01*
Y139863D01*
X555131Y139860D01*
X555122Y139843D01*
X555107Y139817D01*
X555087Y139787D01*
X555061Y139753D01*
X555029Y139715D01*
X554988Y139680D01*
X554945Y139648D01*
X554939Y139645D01*
X554921Y139636D01*
X554898Y139622D01*
X554863Y139607D01*
X554822Y139593D01*
X554779Y139578D01*
X554729Y139569D01*
X554680Y139566D01*
X554659D01*
X554633Y139569D01*
X554601Y139575D01*
X554563Y139584D01*
X554523Y139598D01*
X554482Y139616D01*
X554438Y139639D01*
X554432Y139642D01*
X554421Y139651D01*
X554397Y139668D01*
X554374Y139691D01*
X554345Y139721D01*
X554313Y139755D01*
X554284Y139799D01*
X554255Y139849D01*
Y139846D01*
X554252Y139840D01*
X554249Y139831D01*
X554243Y139820D01*
X554232Y139785D01*
X554211Y139744D01*
X554185Y139700D01*
X554153Y139651D01*
X554115Y139607D01*
X554069Y139566D01*
X554063Y139563D01*
X554045Y139552D01*
X554019Y139534D01*
X553984Y139517D01*
X553938Y139499D01*
X553888Y139482D01*
X553830Y139470D01*
X553766Y139467D01*
X553743D01*
X553714Y139470D01*
X553679Y139476D01*
X553638Y139482D01*
X553594Y139494D01*
X553548Y139508D01*
X553501Y139529D01*
X553495Y139531D01*
X553481Y139540D01*
X553461Y139552D01*
X553431Y139569D01*
X553402Y139593D01*
X553370Y139616D01*
X553338Y139645D01*
X553312Y139677D01*
X553309Y139680D01*
X553300Y139691D01*
X553289Y139712D01*
X553277Y139738D01*
X553260Y139770D01*
X553242Y139808D01*
X553228Y139849D01*
X553213Y139898D01*
Y139904D01*
X553207Y139921D01*
X553204Y139951D01*
X553199Y139988D01*
X553193Y140035D01*
X553187Y140090D01*
X553184Y140151D01*
X553181Y140221D01*
Y140989D01*
X555195D01*
Y140236D01*
D02*
G37*
G36*
X554255Y143085D02*
X554284D01*
X554313Y143082D01*
X554351Y143079D01*
X554389Y143073D01*
X554473Y143058D01*
X554566Y143038D01*
X554659Y143009D01*
X554750Y142968D01*
X554752Y142965D01*
X554761Y142962D01*
X554773Y142956D01*
X554787Y142945D01*
X554808Y142933D01*
X554831Y142919D01*
X554883Y142881D01*
X554942Y142831D01*
X555000Y142773D01*
X555058Y142706D01*
X555107Y142628D01*
X555110Y142625D01*
X555113Y142616D01*
X555119Y142604D01*
X555128Y142590D01*
X555137Y142567D01*
X555145Y142543D01*
X555157Y142514D01*
X555169Y142482D01*
X555180Y142447D01*
X555192Y142409D01*
X555209Y142328D01*
X555224Y142235D01*
X555230Y142139D01*
Y142136D01*
Y142124D01*
Y142110D01*
X555227Y142089D01*
X555224Y142063D01*
X555221Y142031D01*
X555218Y141999D01*
X555209Y141961D01*
X555192Y141883D01*
X555166Y141795D01*
X555148Y141752D01*
X555128Y141711D01*
X555102Y141670D01*
X555076Y141630D01*
X555073Y141627D01*
X555070Y141621D01*
X555061Y141609D01*
X555046Y141595D01*
X555032Y141580D01*
X555012Y141560D01*
X554988Y141539D01*
X554965Y141516D01*
X554936Y141493D01*
X554901Y141470D01*
X554866Y141443D01*
X554828Y141420D01*
X554784Y141400D01*
X554741Y141376D01*
X554694Y141359D01*
X554642Y141341D01*
X554581Y141603D01*
X554584D01*
X554590Y141606D01*
X554601Y141612D01*
X554616Y141618D01*
X554633Y141624D01*
X554657Y141632D01*
X554703Y141656D01*
X554755Y141685D01*
X554808Y141720D01*
X554857Y141763D01*
X554901Y141810D01*
X554907Y141816D01*
X554918Y141833D01*
X554933Y141862D01*
X554953Y141900D01*
X554971Y141950D01*
X554988Y142005D01*
X555000Y142072D01*
X555003Y142145D01*
Y142148D01*
Y142156D01*
Y142168D01*
X555000Y142182D01*
Y142203D01*
X554997Y142226D01*
X554988Y142281D01*
X554977Y142342D01*
X554956Y142406D01*
X554927Y142473D01*
X554889Y142534D01*
Y142537D01*
X554883Y142540D01*
X554869Y142561D01*
X554846Y142587D01*
X554811Y142619D01*
X554767Y142657D01*
X554718Y142692D01*
X554657Y142724D01*
X554590Y142753D01*
X554587D01*
X554581Y142756D01*
X554572Y142759D01*
X554558Y142762D01*
X554540Y142767D01*
X554520Y142773D01*
X554470Y142782D01*
X554412Y142794D01*
X554348Y142805D01*
X554278Y142811D01*
X554203Y142814D01*
X554159D01*
X554139Y142811D01*
X554112D01*
X554083Y142808D01*
X554051Y142805D01*
X553981Y142797D01*
X553906Y142782D01*
X553830Y142764D01*
X553754Y142741D01*
X553752D01*
X553746Y142738D01*
X553737Y142732D01*
X553722Y142727D01*
X553687Y142709D01*
X553647Y142683D01*
X553600Y142651D01*
X553551Y142610D01*
X553507Y142564D01*
X553466Y142508D01*
Y142505D01*
X553463Y142500D01*
X553457Y142491D01*
X553452Y142479D01*
X553446Y142465D01*
X553437Y142447D01*
X553420Y142406D01*
X553402Y142354D01*
X553388Y142296D01*
X553376Y142232D01*
X553373Y142165D01*
Y142162D01*
Y142156D01*
Y142145D01*
X553376Y142127D01*
Y142107D01*
X553379Y142086D01*
X553391Y142034D01*
X553405Y141973D01*
X553428Y141912D01*
X553461Y141848D01*
X553478Y141816D01*
X553501Y141787D01*
X553504Y141784D01*
X553507Y141781D01*
X553516Y141772D01*
X553524Y141761D01*
X553539Y141749D01*
X553556Y141734D01*
X553574Y141717D01*
X553597Y141702D01*
X553623Y141685D01*
X553652Y141665D01*
X553682Y141647D01*
X553717Y141630D01*
X553754Y141615D01*
X553795Y141600D01*
X553839Y141586D01*
X553885Y141574D01*
X553818Y141306D01*
X553816D01*
X553804Y141309D01*
X553786Y141315D01*
X553763Y141324D01*
X553737Y141333D01*
X553705Y141344D01*
X553670Y141359D01*
X553632Y141376D01*
X553551Y141417D01*
X553469Y141470D01*
X553428Y141501D01*
X553388Y141534D01*
X553353Y141568D01*
X553318Y141609D01*
X553315Y141612D01*
X553309Y141618D01*
X553303Y141632D01*
X553292Y141647D01*
X553277Y141670D01*
X553263Y141694D01*
X553248Y141726D01*
X553233Y141758D01*
X553216Y141795D01*
X553201Y141836D01*
X553187Y141880D01*
X553172Y141926D01*
X553161Y141976D01*
X553155Y142028D01*
X553149Y142084D01*
X553146Y142142D01*
Y142145D01*
Y142156D01*
Y142174D01*
X553149Y142197D01*
Y142223D01*
X553152Y142255D01*
X553158Y142290D01*
X553164Y142331D01*
X553178Y142415D01*
X553201Y142502D01*
X553233Y142590D01*
X553254Y142631D01*
X553277Y142671D01*
X553280Y142674D01*
X553283Y142680D01*
X553292Y142692D01*
X553303Y142703D01*
X553315Y142721D01*
X553332Y142741D01*
X553353Y142764D01*
X553376Y142788D01*
X553402Y142811D01*
X553428Y142837D01*
X553495Y142890D01*
X553574Y142939D01*
X553661Y142983D01*
X553664D01*
X553673Y142989D01*
X553687Y142991D01*
X553705Y143000D01*
X553728Y143006D01*
X553757Y143015D01*
X553789Y143026D01*
X553824Y143035D01*
X553862Y143044D01*
X553906Y143055D01*
X553996Y143070D01*
X554098Y143082D01*
X554203Y143087D01*
X554235D01*
X554255Y143085D01*
D02*
G37*
G36*
X555195Y144129D02*
Y144126D01*
Y144121D01*
Y144109D01*
Y144097D01*
Y144080D01*
Y144059D01*
X555192Y144016D01*
X555189Y143966D01*
X555186Y143914D01*
X555180Y143864D01*
X555174Y143821D01*
Y143818D01*
Y143815D01*
X555169Y143795D01*
X555163Y143768D01*
X555154Y143734D01*
X555139Y143696D01*
X555122Y143655D01*
X555102Y143611D01*
X555078Y143573D01*
X555076Y143568D01*
X555067Y143556D01*
X555049Y143538D01*
X555029Y143515D01*
X555003Y143489D01*
X554968Y143463D01*
X554930Y143434D01*
X554886Y143411D01*
X554881Y143407D01*
X554866Y143402D01*
X554840Y143390D01*
X554805Y143378D01*
X554764Y143370D01*
X554718Y143358D01*
X554665Y143352D01*
X554610Y143349D01*
X554587D01*
X554566Y143352D01*
X554546Y143355D01*
X554520Y143358D01*
X554491Y143364D01*
X554459Y143370D01*
X554392Y143390D01*
X554357Y143402D01*
X554319Y143419D01*
X554281Y143440D01*
X554246Y143460D01*
X554211Y143486D01*
X554176Y143515D01*
X554173Y143518D01*
X554168Y143524D01*
X554159Y143533D01*
X554150Y143547D01*
X554136Y143565D01*
X554121Y143588D01*
X554104Y143617D01*
X554089Y143649D01*
X554072Y143687D01*
X554054Y143731D01*
X554039Y143777D01*
X554028Y143832D01*
X554016Y143891D01*
X554007Y143955D01*
X554002Y144027D01*
X553999Y144103D01*
Y144618D01*
X553181D01*
Y144886D01*
X555195D01*
Y144129D01*
D02*
G37*
G36*
Y134817D02*
X554913D01*
Y135065D01*
X555195D01*
Y134817D01*
D02*
G37*
G36*
Y136383D02*
X554473D01*
X554476Y136380D01*
X554482Y136374D01*
X554491Y136365D01*
X554505Y136351D01*
X554520Y136336D01*
X554537Y136316D01*
X554555Y136290D01*
X554575Y136264D01*
X554593Y136234D01*
X554610Y136202D01*
X554642Y136127D01*
X554657Y136086D01*
X554665Y136042D01*
X554671Y135996D01*
X554674Y135949D01*
Y135946D01*
Y135943D01*
Y135935D01*
Y135923D01*
X554671Y135891D01*
X554665Y135853D01*
X554659Y135810D01*
X554648Y135763D01*
X554630Y135716D01*
X554610Y135670D01*
X554607Y135664D01*
X554598Y135650D01*
X554584Y135629D01*
X554563Y135603D01*
X554537Y135577D01*
X554508Y135548D01*
X554473Y135521D01*
X554432Y135498D01*
X554427Y135495D01*
X554412Y135489D01*
X554386Y135481D01*
X554348Y135472D01*
X554302Y135463D01*
X554246Y135454D01*
X554179Y135449D01*
X554104Y135446D01*
X553181D01*
Y135693D01*
X554136D01*
X554168Y135696D01*
X554208Y135702D01*
X554252Y135714D01*
X554296Y135728D01*
X554339Y135748D01*
X554374Y135775D01*
X554377Y135777D01*
X554389Y135789D01*
X554403Y135807D01*
X554418Y135833D01*
X554435Y135865D01*
X554447Y135903D01*
X554459Y135949D01*
X554461Y136002D01*
Y136007D01*
Y136019D01*
X554459Y136039D01*
X554456Y136068D01*
X554447Y136098D01*
X554438Y136133D01*
X554424Y136168D01*
X554403Y136205D01*
X554400Y136208D01*
X554392Y136220D01*
X554380Y136237D01*
X554363Y136258D01*
X554339Y136281D01*
X554313Y136304D01*
X554281Y136325D01*
X554246Y136342D01*
X554240Y136345D01*
X554229Y136348D01*
X554205Y136354D01*
X554176Y136362D01*
X554139Y136371D01*
X554092Y136377D01*
X554039Y136380D01*
X553978Y136383D01*
X553181D01*
Y136630D01*
X555195D01*
Y136383D01*
D02*
G37*
G36*
Y136875D02*
X554956D01*
Y137538D01*
X553181D01*
Y137806D01*
X554956D01*
Y138469D01*
X555195D01*
Y136875D01*
D02*
G37*
G36*
X554642Y120759D02*
X554432D01*
X554438Y120756D01*
X554450Y120747D01*
X554470Y120730D01*
X554494Y120710D01*
X554523Y120683D01*
X554552Y120651D01*
X554581Y120616D01*
X554607Y120576D01*
X554610Y120570D01*
X554619Y120555D01*
X554627Y120532D01*
X554642Y120500D01*
X554654Y120462D01*
X554662Y120419D01*
X554671Y120369D01*
X554674Y120317D01*
Y120314D01*
Y120308D01*
Y120302D01*
Y120291D01*
X554671Y120258D01*
X554665Y120224D01*
X554657Y120180D01*
X554645Y120136D01*
X554627Y120093D01*
X554604Y120052D01*
X554601Y120046D01*
X554593Y120034D01*
X554578Y120017D01*
X554555Y119994D01*
X554528Y119970D01*
X554496Y119944D01*
X554459Y119921D01*
X554415Y119904D01*
X554418Y119901D01*
X554427Y119895D01*
X554438Y119886D01*
X554456Y119871D01*
X554476Y119854D01*
X554496Y119834D01*
X554520Y119810D01*
X554546Y119781D01*
X554569Y119749D01*
X554593Y119717D01*
X554613Y119679D01*
X554633Y119639D01*
X554651Y119595D01*
X554662Y119548D01*
X554671Y119502D01*
X554674Y119449D01*
Y119447D01*
Y119441D01*
Y119429D01*
X554671Y119415D01*
Y119394D01*
X554668Y119374D01*
X554659Y119324D01*
X554645Y119272D01*
X554622Y119217D01*
X554593Y119161D01*
X554552Y119115D01*
X554546Y119109D01*
X554528Y119097D01*
X554502Y119077D01*
X554482Y119068D01*
X554461Y119057D01*
X554435Y119045D01*
X554409Y119036D01*
X554380Y119025D01*
X554345Y119016D01*
X554310Y119010D01*
X554269Y119004D01*
X554229Y118999D01*
X553181D01*
Y119246D01*
X554147D01*
X554179Y119249D01*
X554214Y119252D01*
X554249Y119255D01*
X554284Y119260D01*
X554310Y119269D01*
X554313D01*
X554322Y119275D01*
X554333Y119281D01*
X554348Y119290D01*
X554365Y119301D01*
X554383Y119316D01*
X554400Y119333D01*
X554418Y119356D01*
X554421Y119359D01*
X554424Y119368D01*
X554429Y119380D01*
X554438Y119400D01*
X554447Y119420D01*
X554453Y119447D01*
X554456Y119473D01*
X554459Y119505D01*
Y119508D01*
Y119511D01*
Y119519D01*
X554456Y119531D01*
X554453Y119560D01*
X554447Y119595D01*
X554432Y119636D01*
X554415Y119679D01*
X554389Y119723D01*
X554354Y119764D01*
X554348Y119767D01*
X554333Y119778D01*
X554310Y119796D01*
X554275Y119813D01*
X554229Y119834D01*
X554173Y119848D01*
X554107Y119860D01*
X554028Y119866D01*
X553181D01*
Y120113D01*
X554153D01*
X554185Y120116D01*
X554220Y120122D01*
X554261Y120127D01*
X554302Y120139D01*
X554339Y120154D01*
X554374Y120174D01*
X554377Y120177D01*
X554389Y120186D01*
X554400Y120200D01*
X554418Y120221D01*
X554432Y120247D01*
X554447Y120282D01*
X554456Y120323D01*
X554459Y120372D01*
Y120378D01*
Y120389D01*
X554456Y120410D01*
X554453Y120433D01*
X554444Y120462D01*
X554435Y120497D01*
X554421Y120529D01*
X554403Y120564D01*
X554400Y120567D01*
X554392Y120579D01*
X554380Y120593D01*
X554363Y120614D01*
X554339Y120634D01*
X554310Y120654D01*
X554278Y120675D01*
X554240Y120692D01*
X554235Y120695D01*
X554220Y120698D01*
X554197Y120704D01*
X554165Y120712D01*
X554121Y120721D01*
X554069Y120727D01*
X554007Y120730D01*
X553938Y120733D01*
X553181D01*
Y120980D01*
X554642D01*
Y120759D01*
D02*
G37*
G36*
X554176Y122621D02*
X554217D01*
X554264Y122618D01*
X554319Y122613D01*
X554380Y122607D01*
X554447Y122598D01*
X554514Y122587D01*
X554587Y122572D01*
X554657Y122555D01*
X554726Y122534D01*
X554793Y122508D01*
X554857Y122479D01*
X554918Y122447D01*
X554971Y122409D01*
X554974Y122406D01*
X554980Y122400D01*
X554991Y122389D01*
X555009Y122374D01*
X555026Y122357D01*
X555044Y122333D01*
X555067Y122304D01*
X555087Y122275D01*
X555107Y122240D01*
X555131Y122202D01*
X555148Y122159D01*
X555169Y122115D01*
X555183Y122066D01*
X555195Y122013D01*
X555201Y121958D01*
X555203Y121900D01*
Y121897D01*
Y121888D01*
Y121877D01*
X555201Y121859D01*
Y121839D01*
X555198Y121815D01*
X555186Y121760D01*
X555171Y121699D01*
X555148Y121635D01*
X555113Y121571D01*
X555093Y121539D01*
X555070Y121510D01*
X555067Y121507D01*
X555064Y121504D01*
X555055Y121495D01*
X555046Y121486D01*
X555032Y121472D01*
X555014Y121460D01*
X554974Y121428D01*
X554921Y121396D01*
X554857Y121367D01*
X554784Y121341D01*
X554703Y121324D01*
X554683Y121571D01*
X554686D01*
X554689Y121574D01*
X554706Y121577D01*
X554732Y121586D01*
X554764Y121597D01*
X554799Y121609D01*
X554834Y121626D01*
X554866Y121647D01*
X554892Y121667D01*
X554898Y121673D01*
X554910Y121684D01*
X554927Y121705D01*
X554948Y121734D01*
X554965Y121772D01*
X554982Y121812D01*
X554994Y121862D01*
X555000Y121914D01*
Y121920D01*
Y121935D01*
X554997Y121958D01*
X554991Y121984D01*
X554982Y122019D01*
X554971Y122054D01*
X554956Y122089D01*
X554933Y122124D01*
X554930Y122130D01*
X554918Y122144D01*
X554898Y122165D01*
X554869Y122191D01*
X554834Y122220D01*
X554793Y122252D01*
X554741Y122281D01*
X554683Y122310D01*
X554680D01*
X554674Y122313D01*
X554665Y122316D01*
X554654Y122322D01*
X554636Y122325D01*
X554616Y122330D01*
X554593Y122336D01*
X554563Y122342D01*
X554531Y122351D01*
X554496Y122357D01*
X554459Y122362D01*
X554418Y122365D01*
X554371Y122371D01*
X554325Y122374D01*
X554272Y122377D01*
X554220D01*
X554223Y122374D01*
X554240Y122362D01*
X554264Y122342D01*
X554293Y122316D01*
X554328Y122287D01*
X554360Y122249D01*
X554392Y122208D01*
X554421Y122162D01*
Y122159D01*
X554424Y122156D01*
X554432Y122138D01*
X554441Y122112D01*
X554456Y122077D01*
X554467Y122037D01*
X554476Y121990D01*
X554485Y121941D01*
X554488Y121888D01*
Y121885D01*
Y121877D01*
Y121865D01*
X554485Y121847D01*
X554482Y121824D01*
X554479Y121801D01*
X554473Y121772D01*
X554464Y121743D01*
X554444Y121676D01*
X554429Y121641D01*
X554409Y121606D01*
X554389Y121571D01*
X554365Y121533D01*
X554336Y121498D01*
X554304Y121466D01*
X554302Y121463D01*
X554296Y121457D01*
X554287Y121449D01*
X554272Y121440D01*
X554252Y121425D01*
X554232Y121411D01*
X554205Y121396D01*
X554176Y121379D01*
X554144Y121361D01*
X554109Y121347D01*
X554069Y121332D01*
X554028Y121318D01*
X553984Y121309D01*
X553935Y121300D01*
X553885Y121294D01*
X553833Y121292D01*
X553801D01*
X553784Y121294D01*
X553766D01*
X553719Y121303D01*
X553664Y121312D01*
X553606Y121326D01*
X553542Y121347D01*
X553481Y121376D01*
X553478D01*
X553475Y121379D01*
X553466Y121385D01*
X553455Y121390D01*
X553426Y121408D01*
X553388Y121434D01*
X553347Y121466D01*
X553306Y121504D01*
X553265Y121551D01*
X553231Y121600D01*
Y121603D01*
X553228Y121606D01*
X553222Y121615D01*
X553219Y121626D01*
X553204Y121655D01*
X553190Y121693D01*
X553172Y121743D01*
X553161Y121798D01*
X553149Y121859D01*
X553146Y121926D01*
Y121929D01*
Y121941D01*
X553149Y121955D01*
Y121978D01*
X553152Y122004D01*
X553158Y122034D01*
X553167Y122069D01*
X553175Y122103D01*
X553187Y122144D01*
X553201Y122185D01*
X553219Y122226D01*
X553242Y122269D01*
X553268Y122310D01*
X553298Y122351D01*
X553332Y122391D01*
X553373Y122429D01*
X553376Y122432D01*
X553385Y122438D01*
X553396Y122447D01*
X553417Y122459D01*
X553443Y122476D01*
X553472Y122491D01*
X553510Y122508D01*
X553551Y122525D01*
X553600Y122546D01*
X553655Y122563D01*
X553717Y122578D01*
X553784Y122592D01*
X553859Y122607D01*
X553941Y122616D01*
X554028Y122621D01*
X554121Y122624D01*
X554147D01*
X554176Y122621D01*
D02*
G37*
G36*
X554642Y118414D02*
X554432D01*
X554438Y118411D01*
X554450Y118402D01*
X554470Y118385D01*
X554494Y118364D01*
X554523Y118338D01*
X554552Y118306D01*
X554581Y118271D01*
X554607Y118230D01*
X554610Y118224D01*
X554619Y118210D01*
X554627Y118187D01*
X554642Y118155D01*
X554654Y118117D01*
X554662Y118073D01*
X554671Y118024D01*
X554674Y117971D01*
Y117968D01*
Y117963D01*
Y117957D01*
Y117945D01*
X554671Y117913D01*
X554665Y117878D01*
X554657Y117834D01*
X554645Y117791D01*
X554627Y117747D01*
X554604Y117706D01*
X554601Y117701D01*
X554593Y117689D01*
X554578Y117672D01*
X554555Y117648D01*
X554528Y117625D01*
X554496Y117599D01*
X554459Y117576D01*
X554415Y117558D01*
X554418Y117555D01*
X554427Y117549D01*
X554438Y117541D01*
X554456Y117526D01*
X554476Y117508D01*
X554496Y117488D01*
X554520Y117465D01*
X554546Y117436D01*
X554569Y117404D01*
X554593Y117372D01*
X554613Y117334D01*
X554633Y117293D01*
X554651Y117250D01*
X554662Y117203D01*
X554671Y117156D01*
X554674Y117104D01*
Y117101D01*
Y117095D01*
Y117084D01*
X554671Y117069D01*
Y117049D01*
X554668Y117028D01*
X554659Y116979D01*
X554645Y116927D01*
X554622Y116871D01*
X554593Y116816D01*
X554552Y116769D01*
X554546Y116764D01*
X554528Y116752D01*
X554502Y116732D01*
X554482Y116723D01*
X554461Y116711D01*
X554435Y116700D01*
X554409Y116691D01*
X554380Y116679D01*
X554345Y116671D01*
X554310Y116665D01*
X554269Y116659D01*
X554229Y116653D01*
X553181D01*
Y116900D01*
X554147D01*
X554179Y116903D01*
X554214Y116906D01*
X554249Y116909D01*
X554284Y116915D01*
X554310Y116924D01*
X554313D01*
X554322Y116929D01*
X554333Y116935D01*
X554348Y116944D01*
X554365Y116956D01*
X554383Y116970D01*
X554400Y116988D01*
X554418Y117011D01*
X554421Y117014D01*
X554424Y117023D01*
X554429Y117034D01*
X554438Y117055D01*
X554447Y117075D01*
X554453Y117101D01*
X554456Y117127D01*
X554459Y117159D01*
Y117162D01*
Y117165D01*
Y117174D01*
X554456Y117185D01*
X554453Y117215D01*
X554447Y117250D01*
X554432Y117290D01*
X554415Y117334D01*
X554389Y117378D01*
X554354Y117418D01*
X554348Y117421D01*
X554333Y117433D01*
X554310Y117450D01*
X554275Y117468D01*
X554229Y117488D01*
X554173Y117503D01*
X554107Y117514D01*
X554028Y117520D01*
X553181D01*
Y117768D01*
X554153D01*
X554185Y117771D01*
X554220Y117776D01*
X554261Y117782D01*
X554302Y117794D01*
X554339Y117808D01*
X554374Y117829D01*
X554377Y117832D01*
X554389Y117840D01*
X554400Y117855D01*
X554418Y117875D01*
X554432Y117901D01*
X554447Y117936D01*
X554456Y117977D01*
X554459Y118026D01*
Y118032D01*
Y118044D01*
X554456Y118064D01*
X554453Y118088D01*
X554444Y118117D01*
X554435Y118152D01*
X554421Y118184D01*
X554403Y118219D01*
X554400Y118221D01*
X554392Y118233D01*
X554380Y118248D01*
X554363Y118268D01*
X554339Y118288D01*
X554310Y118309D01*
X554278Y118329D01*
X554240Y118347D01*
X554235Y118350D01*
X554220Y118352D01*
X554197Y118358D01*
X554165Y118367D01*
X554121Y118376D01*
X554069Y118382D01*
X554007Y118385D01*
X553938Y118387D01*
X553181D01*
Y118635D01*
X554642D01*
Y118414D01*
D02*
G37*
G36*
X589294Y135604D02*
X589323D01*
X589353Y135601D01*
X589390Y135598D01*
X589428Y135593D01*
X589512Y135578D01*
X589606Y135558D01*
X589699Y135529D01*
X589789Y135488D01*
X589792Y135485D01*
X589801Y135482D01*
X589812Y135476D01*
X589827Y135465D01*
X589847Y135453D01*
X589870Y135438D01*
X589923Y135400D01*
X589981Y135351D01*
X590039Y135293D01*
X590097Y135226D01*
X590147Y135147D01*
X590150Y135144D01*
X590153Y135136D01*
X590159Y135124D01*
X590167Y135109D01*
X590176Y135086D01*
X590185Y135063D01*
X590196Y135034D01*
X590208Y135002D01*
X590220Y134967D01*
X590231Y134929D01*
X590249Y134848D01*
X590263Y134755D01*
X590269Y134659D01*
Y134656D01*
Y134644D01*
Y134629D01*
X590266Y134609D01*
X590263Y134583D01*
X590260Y134551D01*
X590258Y134519D01*
X590249Y134481D01*
X590231Y134402D01*
X590205Y134315D01*
X590188Y134271D01*
X590167Y134231D01*
X590141Y134190D01*
X590115Y134149D01*
X590112Y134146D01*
X590109Y134141D01*
X590100Y134129D01*
X590086Y134114D01*
X590071Y134100D01*
X590051Y134079D01*
X590028Y134059D01*
X590004Y134036D01*
X589975Y134012D01*
X589940Y133989D01*
X589905Y133963D01*
X589867Y133940D01*
X589824Y133919D01*
X589780Y133896D01*
X589734Y133879D01*
X589681Y133861D01*
X589620Y134123D01*
X589623D01*
X589629Y134126D01*
X589641Y134132D01*
X589655Y134138D01*
X589673Y134143D01*
X589696Y134152D01*
X589742Y134175D01*
X589795Y134204D01*
X589847Y134239D01*
X589897Y134283D01*
X589940Y134330D01*
X589946Y134335D01*
X589958Y134353D01*
X589972Y134382D01*
X589993Y134420D01*
X590010Y134469D01*
X590028Y134525D01*
X590039Y134591D01*
X590042Y134664D01*
Y134667D01*
Y134676D01*
Y134688D01*
X590039Y134702D01*
Y134722D01*
X590036Y134746D01*
X590028Y134801D01*
X590016Y134862D01*
X589996Y134926D01*
X589966Y134993D01*
X589929Y135054D01*
Y135057D01*
X589923Y135060D01*
X589908Y135080D01*
X589885Y135107D01*
X589850Y135139D01*
X589806Y135176D01*
X589757Y135211D01*
X589696Y135243D01*
X589629Y135273D01*
X589626D01*
X589620Y135275D01*
X589611Y135278D01*
X589597Y135281D01*
X589579Y135287D01*
X589559Y135293D01*
X589510Y135302D01*
X589451Y135313D01*
X589387Y135325D01*
X589318Y135331D01*
X589242Y135334D01*
X589198D01*
X589178Y135331D01*
X589152D01*
X589123Y135328D01*
X589091Y135325D01*
X589021Y135316D01*
X588945Y135302D01*
X588869Y135284D01*
X588794Y135261D01*
X588791D01*
X588785Y135258D01*
X588776Y135252D01*
X588762Y135246D01*
X588727Y135229D01*
X588686Y135203D01*
X588639Y135171D01*
X588590Y135130D01*
X588546Y135083D01*
X588506Y135028D01*
Y135025D01*
X588503Y135019D01*
X588497Y135011D01*
X588491Y134999D01*
X588485Y134984D01*
X588477Y134967D01*
X588459Y134926D01*
X588442Y134874D01*
X588427Y134816D01*
X588415Y134752D01*
X588413Y134685D01*
Y134682D01*
Y134676D01*
Y134664D01*
X588415Y134647D01*
Y134626D01*
X588418Y134606D01*
X588430Y134554D01*
X588445Y134493D01*
X588468Y134432D01*
X588500Y134368D01*
X588517Y134335D01*
X588541Y134306D01*
X588544Y134303D01*
X588546Y134300D01*
X588555Y134292D01*
X588564Y134280D01*
X588578Y134268D01*
X588596Y134254D01*
X588613Y134237D01*
X588637Y134222D01*
X588663Y134204D01*
X588692Y134184D01*
X588721Y134167D01*
X588756Y134149D01*
X588794Y134135D01*
X588834Y134120D01*
X588878Y134106D01*
X588925Y134094D01*
X588858Y133826D01*
X588855D01*
X588843Y133829D01*
X588826Y133835D01*
X588802Y133844D01*
X588776Y133852D01*
X588744Y133864D01*
X588709Y133879D01*
X588671Y133896D01*
X588590Y133937D01*
X588509Y133989D01*
X588468Y134021D01*
X588427Y134053D01*
X588392Y134088D01*
X588357Y134129D01*
X588354Y134132D01*
X588348Y134138D01*
X588343Y134152D01*
X588331Y134167D01*
X588316Y134190D01*
X588302Y134213D01*
X588287Y134245D01*
X588273Y134277D01*
X588255Y134315D01*
X588241Y134356D01*
X588226Y134399D01*
X588212Y134446D01*
X588200Y134495D01*
X588194Y134548D01*
X588189Y134603D01*
X588186Y134661D01*
Y134664D01*
Y134676D01*
Y134693D01*
X588189Y134717D01*
Y134743D01*
X588191Y134775D01*
X588197Y134810D01*
X588203Y134851D01*
X588218Y134935D01*
X588241Y135022D01*
X588273Y135109D01*
X588293Y135150D01*
X588316Y135191D01*
X588319Y135194D01*
X588322Y135200D01*
X588331Y135211D01*
X588343Y135223D01*
X588354Y135240D01*
X588372Y135261D01*
X588392Y135284D01*
X588415Y135307D01*
X588442Y135331D01*
X588468Y135357D01*
X588535Y135409D01*
X588613Y135459D01*
X588701Y135502D01*
X588703D01*
X588712Y135508D01*
X588727Y135511D01*
X588744Y135520D01*
X588768Y135526D01*
X588797Y135534D01*
X588829Y135546D01*
X588864Y135555D01*
X588901Y135564D01*
X588945Y135575D01*
X589035Y135590D01*
X589137Y135601D01*
X589242Y135607D01*
X589274D01*
X589294Y135604D01*
D02*
G37*
G36*
X590234Y136649D02*
Y136646D01*
Y136640D01*
Y136628D01*
Y136617D01*
Y136599D01*
Y136579D01*
X590231Y136535D01*
X590228Y136486D01*
X590226Y136434D01*
X590220Y136384D01*
X590214Y136340D01*
Y136337D01*
Y136335D01*
X590208Y136314D01*
X590202Y136288D01*
X590194Y136253D01*
X590179Y136215D01*
X590161Y136175D01*
X590141Y136131D01*
X590118Y136093D01*
X590115Y136087D01*
X590106Y136076D01*
X590089Y136058D01*
X590068Y136035D01*
X590042Y136009D01*
X590007Y135983D01*
X589969Y135953D01*
X589926Y135930D01*
X589920Y135927D01*
X589905Y135921D01*
X589879Y135910D01*
X589844Y135898D01*
X589804Y135889D01*
X589757Y135878D01*
X589705Y135872D01*
X589649Y135869D01*
X589626D01*
X589606Y135872D01*
X589585Y135875D01*
X589559Y135878D01*
X589530Y135884D01*
X589498Y135889D01*
X589431Y135910D01*
X589396Y135921D01*
X589358Y135939D01*
X589320Y135959D01*
X589286Y135980D01*
X589251Y136006D01*
X589216Y136035D01*
X589213Y136038D01*
X589207Y136044D01*
X589198Y136052D01*
X589189Y136067D01*
X589175Y136084D01*
X589160Y136108D01*
X589143Y136137D01*
X589128Y136169D01*
X589111Y136207D01*
X589093Y136250D01*
X589079Y136297D01*
X589067Y136352D01*
X589056Y136410D01*
X589047Y136474D01*
X589041Y136547D01*
X589038Y136623D01*
Y137138D01*
X588221D01*
Y137406D01*
X590234D01*
Y136649D01*
D02*
G37*
G36*
X553463Y122974D02*
X553181D01*
Y123256D01*
X553463D01*
Y122974D01*
D02*
G37*
G36*
X554697Y124769D02*
X554703Y124763D01*
X554706Y124751D01*
X554715Y124737D01*
X554723Y124720D01*
X554735Y124699D01*
X554764Y124650D01*
X554796Y124592D01*
X554837Y124533D01*
X554883Y124472D01*
X554933Y124411D01*
X554936Y124408D01*
X554939Y124405D01*
X554948Y124397D01*
X554956Y124385D01*
X554985Y124359D01*
X555020Y124324D01*
X555061Y124289D01*
X555107Y124251D01*
X555154Y124219D01*
X555203Y124190D01*
Y124030D01*
X553181D01*
Y124277D01*
X554755D01*
X554752Y124280D01*
X554741Y124295D01*
X554723Y124312D01*
X554703Y124341D01*
X554677Y124373D01*
X554648Y124414D01*
X554616Y124460D01*
X554584Y124513D01*
Y124516D01*
X554581Y124519D01*
X554569Y124536D01*
X554555Y124565D01*
X554537Y124600D01*
X554517Y124641D01*
X554496Y124685D01*
X554476Y124728D01*
X554459Y124772D01*
X554697D01*
Y124769D01*
D02*
G37*
%LPC*%
G36*
X735949Y135945D02*
X735940D01*
X735931Y135942D01*
X735920D01*
X735885Y135936D01*
X735847Y135927D01*
X735800Y135913D01*
X735757Y135898D01*
X735713Y135875D01*
X735675Y135848D01*
X735672D01*
X735669Y135843D01*
X735652Y135828D01*
X735629Y135802D01*
X735603Y135767D01*
X735576Y135723D01*
X735553Y135671D01*
X735536Y135610D01*
X735533Y135578D01*
X735530Y135543D01*
Y135540D01*
Y135534D01*
Y135526D01*
X735533Y135514D01*
X735536Y135482D01*
X735544Y135444D01*
X735559Y135398D01*
X735579Y135348D01*
X735608Y135301D01*
X735646Y135255D01*
X735652Y135249D01*
X735667Y135237D01*
X735693Y135217D01*
X735728Y135197D01*
X735768Y135173D01*
X735821Y135153D01*
X735882Y135136D01*
X735949Y135127D01*
Y135945D01*
D02*
G37*
G36*
X589996Y133241D02*
X589390D01*
Y132808D01*
Y132805D01*
Y132799D01*
Y132790D01*
Y132779D01*
Y132747D01*
X589393Y132709D01*
X589396Y132668D01*
X589399Y132627D01*
X589405Y132587D01*
X589411Y132554D01*
X589414Y132549D01*
X589417Y132537D01*
X589425Y132520D01*
X589437Y132496D01*
X589448Y132473D01*
X589466Y132447D01*
X589489Y132421D01*
X589512Y132400D01*
X589515Y132397D01*
X589524Y132392D01*
X589542Y132383D01*
X589562Y132374D01*
X589585Y132365D01*
X589614Y132357D01*
X589649Y132351D01*
X589687Y132348D01*
X589705D01*
X589722Y132351D01*
X589745Y132354D01*
X589774Y132360D01*
X589804Y132368D01*
X589833Y132380D01*
X589862Y132397D01*
X589865Y132400D01*
X589873Y132406D01*
X589888Y132418D01*
X589902Y132432D01*
X589920Y132453D01*
X589937Y132476D01*
X589955Y132505D01*
X589966Y132537D01*
Y132540D01*
X589972Y132554D01*
X589975Y132575D01*
X589981Y132607D01*
X589987Y132651D01*
X589990Y132700D01*
X589996Y132764D01*
Y132802D01*
Y132840D01*
Y133241D01*
D02*
G37*
G36*
X589152D02*
X588459D01*
Y132741D01*
Y132738D01*
Y132735D01*
Y132720D01*
Y132697D01*
Y132668D01*
X588462Y132607D01*
X588465Y132581D01*
X588468Y132557D01*
Y132554D01*
X588471Y132543D01*
X588474Y132525D01*
X588480Y132505D01*
X588497Y132456D01*
X588520Y132406D01*
X588523Y132403D01*
X588529Y132395D01*
X588538Y132383D01*
X588549Y132368D01*
X588567Y132354D01*
X588584Y132333D01*
X588608Y132319D01*
X588634Y132301D01*
X588637Y132299D01*
X588645Y132296D01*
X588663Y132290D01*
X588683Y132281D01*
X588706Y132272D01*
X588735Y132266D01*
X588770Y132264D01*
X588805Y132261D01*
X588823D01*
X588846Y132264D01*
X588872Y132269D01*
X588901Y132275D01*
X588933Y132287D01*
X588965Y132301D01*
X588997Y132322D01*
X589000Y132325D01*
X589012Y132333D01*
X589026Y132345D01*
X589044Y132362D01*
X589064Y132386D01*
X589085Y132415D01*
X589102Y132447D01*
X589117Y132485D01*
X589120Y132491D01*
X589123Y132502D01*
X589128Y132528D01*
X589134Y132560D01*
X589140Y132601D01*
X589146Y132651D01*
X589152Y132712D01*
Y132779D01*
Y133241D01*
D02*
G37*
G36*
X589000Y127267D02*
X588922D01*
X588901Y127264D01*
X588878D01*
X588852Y127261D01*
X588791Y127252D01*
X588724Y127238D01*
X588654Y127218D01*
X588587Y127189D01*
X588558Y127171D01*
X588529Y127151D01*
Y127148D01*
X588523Y127145D01*
X588509Y127130D01*
X588485Y127104D01*
X588462Y127072D01*
X588436Y127031D01*
X588413Y126982D01*
X588398Y126929D01*
X588395Y126900D01*
X588392Y126871D01*
Y126868D01*
Y126863D01*
Y126857D01*
X588395Y126845D01*
X588398Y126813D01*
X588410Y126775D01*
X588424Y126732D01*
X588448Y126685D01*
X588480Y126638D01*
X588500Y126615D01*
X588523Y126595D01*
X588526D01*
X588529Y126589D01*
X588538Y126583D01*
X588549Y126577D01*
X588564Y126569D01*
X588578Y126557D01*
X588602Y126548D01*
X588625Y126537D01*
X588651Y126525D01*
X588680Y126516D01*
X588715Y126505D01*
X588750Y126496D01*
X588791Y126490D01*
X588832Y126484D01*
X588878Y126479D01*
X588957D01*
X588977Y126481D01*
X589000D01*
X589029Y126484D01*
X589061Y126487D01*
X589096Y126493D01*
X589166Y126508D01*
X589239Y126528D01*
X589309Y126557D01*
X589338Y126575D01*
X589367Y126595D01*
X589370D01*
X589373Y126601D01*
X589390Y126615D01*
X589414Y126641D01*
X589440Y126673D01*
X589466Y126714D01*
X589486Y126764D01*
X589504Y126819D01*
X589507Y126848D01*
X589510Y126880D01*
Y126883D01*
Y126886D01*
Y126895D01*
X589507Y126906D01*
X589504Y126938D01*
X589492Y126976D01*
X589478Y127020D01*
X589451Y127066D01*
X589419Y127113D01*
X589396Y127136D01*
X589373Y127156D01*
X589370D01*
X589367Y127162D01*
X589358Y127165D01*
X589347Y127174D01*
X589332Y127183D01*
X589315Y127191D01*
X589294Y127200D01*
X589271Y127212D01*
X589242Y127223D01*
X589210Y127232D01*
X589175Y127241D01*
X589137Y127250D01*
X589096Y127255D01*
X589050Y127261D01*
X589000Y127267D01*
D02*
G37*
G36*
X736182Y143455D02*
X736161D01*
X736147Y143452D01*
X736129D01*
X736109Y143449D01*
X736062Y143441D01*
X736010Y143429D01*
X735955Y143409D01*
X735902Y143380D01*
X735853Y143342D01*
X735847Y143336D01*
X735832Y143321D01*
X735815Y143298D01*
X735792Y143266D01*
X735768Y143225D01*
X735751Y143179D01*
X735736Y143123D01*
X735731Y143062D01*
Y143060D01*
Y143054D01*
Y143045D01*
X735734Y143033D01*
X735736Y143004D01*
X735745Y142964D01*
X735760Y142920D01*
X735783Y142870D01*
X735812Y142824D01*
X735853Y142777D01*
X735859Y142771D01*
X735873Y142760D01*
X735899Y142739D01*
X735937Y142719D01*
X735981Y142699D01*
X736036Y142678D01*
X736097Y142667D01*
X736167Y142661D01*
X736187D01*
X736214Y142664D01*
X736246Y142667D01*
X736283Y142673D01*
X736324Y142684D01*
X736368Y142696D01*
X736412Y142713D01*
X736417Y142716D01*
X736432Y142725D01*
X736452Y142736D01*
X736478Y142754D01*
X736505Y142774D01*
X736537Y142800D01*
X736563Y142830D01*
X736589Y142865D01*
X736592Y142870D01*
X736598Y142882D01*
X736609Y142902D01*
X736618Y142929D01*
X736630Y142958D01*
X736641Y142993D01*
X736647Y143030D01*
X736650Y143071D01*
Y143074D01*
Y143077D01*
Y143086D01*
X736647Y143097D01*
X736644Y143126D01*
X736636Y143164D01*
X736618Y143205D01*
X736598Y143252D01*
X736566Y143298D01*
X736548Y143321D01*
X736525Y143342D01*
X736522D01*
X736519Y143348D01*
X736502Y143359D01*
X736473Y143377D01*
X736435Y143400D01*
X736385Y143420D01*
X736327Y143438D01*
X736260Y143449D01*
X736182Y143455D01*
D02*
G37*
G36*
X701122Y138522D02*
X701043D01*
X701023Y138519D01*
X701000D01*
X700971Y138516D01*
X700939Y138513D01*
X700904Y138507D01*
X700834Y138492D01*
X700761Y138472D01*
X700691Y138443D01*
X700662Y138426D01*
X700633Y138405D01*
X700630D01*
X700627Y138399D01*
X700610Y138385D01*
X700586Y138359D01*
X700560Y138327D01*
X700534Y138286D01*
X700514Y138236D01*
X700496Y138181D01*
X700493Y138152D01*
X700490Y138120D01*
Y138117D01*
Y138114D01*
Y138105D01*
X700493Y138094D01*
X700496Y138062D01*
X700508Y138024D01*
X700522Y137980D01*
X700549Y137934D01*
X700581Y137887D01*
X700604Y137864D01*
X700627Y137844D01*
X700630D01*
X700633Y137838D01*
X700642Y137835D01*
X700653Y137826D01*
X700668Y137817D01*
X700685Y137809D01*
X700706Y137800D01*
X700729Y137788D01*
X700758Y137777D01*
X700790Y137768D01*
X700825Y137759D01*
X700863Y137750D01*
X700904Y137745D01*
X700950Y137739D01*
X701000Y137733D01*
X701078D01*
X701099Y137736D01*
X701122D01*
X701148Y137739D01*
X701209Y137748D01*
X701276Y137762D01*
X701346Y137782D01*
X701413Y137812D01*
X701442Y137829D01*
X701471Y137849D01*
Y137852D01*
X701477Y137855D01*
X701491Y137870D01*
X701515Y137896D01*
X701538Y137928D01*
X701564Y137969D01*
X701587Y138018D01*
X701602Y138070D01*
X701605Y138100D01*
X701608Y138129D01*
Y138132D01*
Y138137D01*
Y138143D01*
X701605Y138155D01*
X701602Y138187D01*
X701590Y138225D01*
X701576Y138268D01*
X701552Y138315D01*
X701520Y138362D01*
X701500Y138385D01*
X701477Y138405D01*
X701474D01*
X701471Y138411D01*
X701462Y138417D01*
X701451Y138423D01*
X701436Y138431D01*
X701422Y138443D01*
X701398Y138452D01*
X701375Y138463D01*
X701349Y138475D01*
X701320Y138484D01*
X701285Y138495D01*
X701250Y138504D01*
X701209Y138510D01*
X701168Y138516D01*
X701122Y138522D01*
D02*
G37*
G36*
X735399Y121377D02*
X735378D01*
X735352Y121374D01*
X735323Y121368D01*
X735291Y121363D01*
X735253Y121351D01*
X735218Y121334D01*
X735183Y121313D01*
X735181Y121310D01*
X735169Y121301D01*
X735154Y121287D01*
X735134Y121269D01*
X735114Y121243D01*
X735096Y121214D01*
X735079Y121182D01*
X735064Y121144D01*
Y121141D01*
X735061Y121130D01*
X735058Y121112D01*
X735052Y121089D01*
X735050Y121054D01*
X735047Y121010D01*
X735044Y120958D01*
Y120894D01*
Y120382D01*
X735763D01*
Y120900D01*
Y120903D01*
Y120912D01*
Y120923D01*
X735760Y120943D01*
Y120964D01*
X735757Y120987D01*
X735751Y121043D01*
X735739Y121104D01*
X735722Y121165D01*
X735699Y121220D01*
X735684Y121246D01*
X735667Y121266D01*
X735661Y121272D01*
X735649Y121284D01*
X735626Y121301D01*
X735597Y121322D01*
X735559Y121342D01*
X735512Y121360D01*
X735460Y121371D01*
X735399Y121377D01*
D02*
G37*
G36*
X700359Y128857D02*
X700339D01*
X700313Y128855D01*
X700284Y128849D01*
X700252Y128843D01*
X700214Y128831D01*
X700179Y128814D01*
X700144Y128793D01*
X700141Y128790D01*
X700130Y128782D01*
X700115Y128767D01*
X700095Y128750D01*
X700074Y128724D01*
X700057Y128694D01*
X700039Y128663D01*
X700025Y128625D01*
Y128622D01*
X700022Y128610D01*
X700019Y128593D01*
X700013Y128569D01*
X700010Y128534D01*
X700007Y128491D01*
X700004Y128438D01*
Y128374D01*
Y127862D01*
X700723D01*
Y128380D01*
Y128383D01*
Y128392D01*
Y128403D01*
X700720Y128424D01*
Y128444D01*
X700717Y128468D01*
X700712Y128523D01*
X700700Y128584D01*
X700682Y128645D01*
X700659Y128700D01*
X700645Y128726D01*
X700627Y128747D01*
X700621Y128753D01*
X700610Y128764D01*
X700586Y128782D01*
X700557Y128802D01*
X700520Y128823D01*
X700473Y128840D01*
X700421Y128852D01*
X700359Y128857D01*
D02*
G37*
G36*
X701195Y132739D02*
X701177D01*
X701154Y132737D01*
X701128Y132731D01*
X701099Y132725D01*
X701067Y132713D01*
X701035Y132699D01*
X701003Y132678D01*
X701000Y132675D01*
X700988Y132667D01*
X700974Y132655D01*
X700956Y132638D01*
X700936Y132614D01*
X700915Y132585D01*
X700898Y132553D01*
X700883Y132515D01*
X700880Y132510D01*
X700877Y132498D01*
X700872Y132472D01*
X700866Y132440D01*
X700860Y132399D01*
X700854Y132349D01*
X700848Y132288D01*
Y132221D01*
Y131759D01*
X701541D01*
Y132259D01*
Y132262D01*
Y132265D01*
Y132280D01*
Y132303D01*
Y132332D01*
X701538Y132393D01*
X701535Y132419D01*
X701532Y132443D01*
Y132446D01*
X701529Y132457D01*
X701526Y132475D01*
X701520Y132495D01*
X701503Y132544D01*
X701480Y132594D01*
X701477Y132597D01*
X701471Y132606D01*
X701462Y132617D01*
X701451Y132632D01*
X701433Y132646D01*
X701416Y132667D01*
X701393Y132681D01*
X701366Y132699D01*
X701363Y132702D01*
X701355Y132704D01*
X701337Y132710D01*
X701317Y132719D01*
X701294Y132728D01*
X701264Y132734D01*
X701229Y132737D01*
X701195Y132739D01*
D02*
G37*
G36*
X700313Y132652D02*
X700295D01*
X700278Y132649D01*
X700255Y132646D01*
X700226Y132640D01*
X700197Y132632D01*
X700167Y132620D01*
X700138Y132603D01*
X700135Y132600D01*
X700127Y132594D01*
X700112Y132582D01*
X700098Y132568D01*
X700080Y132547D01*
X700063Y132524D01*
X700045Y132495D01*
X700034Y132463D01*
Y132460D01*
X700028Y132446D01*
X700025Y132425D01*
X700019Y132393D01*
X700013Y132349D01*
X700010Y132300D01*
X700004Y132236D01*
Y132198D01*
Y132160D01*
Y131759D01*
X700610D01*
Y132192D01*
Y132195D01*
Y132201D01*
Y132210D01*
Y132221D01*
Y132253D01*
X700607Y132291D01*
X700604Y132332D01*
X700601Y132373D01*
X700595Y132413D01*
X700589Y132446D01*
X700586Y132451D01*
X700584Y132463D01*
X700575Y132480D01*
X700563Y132504D01*
X700552Y132527D01*
X700534Y132553D01*
X700511Y132579D01*
X700488Y132600D01*
X700485Y132603D01*
X700476Y132608D01*
X700458Y132617D01*
X700438Y132626D01*
X700415Y132635D01*
X700386Y132643D01*
X700351Y132649D01*
X700313Y132652D01*
D02*
G37*
G36*
X736234Y125259D02*
X736216D01*
X736193Y125256D01*
X736167Y125250D01*
X736138Y125244D01*
X736106Y125233D01*
X736074Y125218D01*
X736042Y125198D01*
X736039Y125195D01*
X736027Y125186D01*
X736013Y125175D01*
X735995Y125157D01*
X735975Y125134D01*
X735955Y125105D01*
X735937Y125073D01*
X735923Y125035D01*
X735920Y125029D01*
X735917Y125017D01*
X735911Y124991D01*
X735905Y124959D01*
X735899Y124919D01*
X735893Y124869D01*
X735888Y124808D01*
Y124741D01*
Y124278D01*
X736580D01*
Y124779D01*
Y124782D01*
Y124785D01*
Y124799D01*
Y124823D01*
Y124852D01*
X736577Y124913D01*
X736575Y124939D01*
X736572Y124962D01*
Y124965D01*
X736569Y124977D01*
X736566Y124994D01*
X736560Y125015D01*
X736543Y125064D01*
X736519Y125114D01*
X736516Y125117D01*
X736510Y125125D01*
X736502Y125137D01*
X736490Y125151D01*
X736473Y125166D01*
X736455Y125186D01*
X736432Y125201D01*
X736406Y125218D01*
X736403Y125221D01*
X736394Y125224D01*
X736377Y125230D01*
X736356Y125239D01*
X736333Y125247D01*
X736304Y125253D01*
X736269Y125256D01*
X736234Y125259D01*
D02*
G37*
G36*
X735352Y125172D02*
X735335D01*
X735317Y125169D01*
X735294Y125166D01*
X735265Y125160D01*
X735236Y125151D01*
X735207Y125140D01*
X735178Y125122D01*
X735175Y125119D01*
X735166Y125114D01*
X735151Y125102D01*
X735137Y125087D01*
X735119Y125067D01*
X735102Y125044D01*
X735084Y125015D01*
X735073Y124983D01*
Y124980D01*
X735067Y124965D01*
X735064Y124945D01*
X735058Y124913D01*
X735052Y124869D01*
X735050Y124820D01*
X735044Y124756D01*
Y124718D01*
Y124680D01*
Y124278D01*
X735649D01*
Y124712D01*
Y124715D01*
Y124721D01*
Y124729D01*
Y124741D01*
Y124773D01*
X735646Y124811D01*
X735643Y124852D01*
X735640Y124892D01*
X735635Y124933D01*
X735629Y124965D01*
X735626Y124971D01*
X735623Y124983D01*
X735614Y125000D01*
X735603Y125023D01*
X735591Y125047D01*
X735573Y125073D01*
X735550Y125099D01*
X735527Y125119D01*
X735524Y125122D01*
X735515Y125128D01*
X735498Y125137D01*
X735477Y125146D01*
X735454Y125154D01*
X735425Y125163D01*
X735390Y125169D01*
X735352Y125172D01*
D02*
G37*
G36*
X554051Y129873D02*
Y129055D01*
X554060D01*
X554069Y129058D01*
X554080D01*
X554115Y129064D01*
X554153Y129073D01*
X554200Y129087D01*
X554243Y129102D01*
X554287Y129125D01*
X554325Y129151D01*
X554328D01*
X554331Y129157D01*
X554348Y129172D01*
X554371Y129198D01*
X554397Y129233D01*
X554424Y129277D01*
X554447Y129329D01*
X554464Y129390D01*
X554467Y129422D01*
X554470Y129457D01*
Y129460D01*
Y129466D01*
Y129474D01*
X554467Y129486D01*
X554464Y129518D01*
X554456Y129556D01*
X554441Y129603D01*
X554421Y129652D01*
X554392Y129699D01*
X554354Y129745D01*
X554348Y129751D01*
X554333Y129763D01*
X554307Y129783D01*
X554272Y129803D01*
X554232Y129827D01*
X554179Y129847D01*
X554118Y129864D01*
X554051Y129873D01*
D02*
G37*
G36*
X554112Y140722D02*
X553420D01*
Y140221D01*
Y140218D01*
Y140215D01*
Y140201D01*
Y140177D01*
Y140148D01*
X553423Y140087D01*
X553426Y140061D01*
X553428Y140038D01*
Y140035D01*
X553431Y140023D01*
X553434Y140006D01*
X553440Y139985D01*
X553457Y139936D01*
X553481Y139886D01*
X553484Y139883D01*
X553490Y139875D01*
X553498Y139863D01*
X553510Y139849D01*
X553527Y139834D01*
X553545Y139814D01*
X553568Y139799D01*
X553594Y139782D01*
X553597Y139779D01*
X553606Y139776D01*
X553623Y139770D01*
X553644Y139761D01*
X553667Y139753D01*
X553696Y139747D01*
X553731Y139744D01*
X553766Y139741D01*
X553784D01*
X553807Y139744D01*
X553833Y139750D01*
X553862Y139755D01*
X553894Y139767D01*
X553926Y139782D01*
X553958Y139802D01*
X553961Y139805D01*
X553973Y139814D01*
X553987Y139825D01*
X554005Y139843D01*
X554025Y139866D01*
X554045Y139895D01*
X554063Y139927D01*
X554077Y139965D01*
X554080Y139971D01*
X554083Y139982D01*
X554089Y140009D01*
X554095Y140041D01*
X554101Y140081D01*
X554107Y140131D01*
X554112Y140192D01*
Y140259D01*
Y140722D01*
D02*
G37*
G36*
X554956D02*
X554351D01*
Y140288D01*
Y140285D01*
Y140279D01*
Y140271D01*
Y140259D01*
Y140227D01*
X554354Y140189D01*
X554357Y140148D01*
X554360Y140108D01*
X554365Y140067D01*
X554371Y140035D01*
X554374Y140029D01*
X554377Y140017D01*
X554386Y140000D01*
X554397Y139977D01*
X554409Y139953D01*
X554427Y139927D01*
X554450Y139901D01*
X554473Y139881D01*
X554476Y139878D01*
X554485Y139872D01*
X554502Y139863D01*
X554523Y139854D01*
X554546Y139846D01*
X554575Y139837D01*
X554610Y139831D01*
X554648Y139828D01*
X554665D01*
X554683Y139831D01*
X554706Y139834D01*
X554735Y139840D01*
X554764Y139849D01*
X554793Y139860D01*
X554822Y139878D01*
X554825Y139881D01*
X554834Y139886D01*
X554848Y139898D01*
X554863Y139913D01*
X554881Y139933D01*
X554898Y139956D01*
X554916Y139985D01*
X554927Y140017D01*
Y140020D01*
X554933Y140035D01*
X554936Y140055D01*
X554942Y140087D01*
X554948Y140131D01*
X554950Y140180D01*
X554956Y140244D01*
Y140282D01*
Y140320D01*
Y140722D01*
D02*
G37*
G36*
Y144618D02*
X554237D01*
Y144100D01*
Y144097D01*
Y144088D01*
Y144077D01*
X554240Y144056D01*
Y144036D01*
X554243Y144013D01*
X554249Y143957D01*
X554261Y143896D01*
X554278Y143835D01*
X554302Y143780D01*
X554316Y143754D01*
X554333Y143734D01*
X554339Y143728D01*
X554351Y143716D01*
X554374Y143699D01*
X554403Y143678D01*
X554441Y143658D01*
X554488Y143640D01*
X554540Y143629D01*
X554601Y143623D01*
X554622D01*
X554648Y143626D01*
X554677Y143632D01*
X554709Y143637D01*
X554747Y143649D01*
X554782Y143667D01*
X554816Y143687D01*
X554819Y143690D01*
X554831Y143699D01*
X554846Y143713D01*
X554866Y143731D01*
X554886Y143757D01*
X554904Y143786D01*
X554921Y143818D01*
X554936Y143856D01*
Y143859D01*
X554939Y143870D01*
X554942Y143888D01*
X554948Y143911D01*
X554950Y143946D01*
X554953Y143990D01*
X554956Y144042D01*
Y144106D01*
Y144618D01*
D02*
G37*
G36*
X553833Y122339D02*
X553813D01*
X553786Y122336D01*
X553754Y122333D01*
X553717Y122327D01*
X553676Y122316D01*
X553632Y122304D01*
X553588Y122287D01*
X553583Y122284D01*
X553568Y122275D01*
X553548Y122264D01*
X553522Y122246D01*
X553495Y122226D01*
X553463Y122199D01*
X553437Y122170D01*
X553411Y122135D01*
X553408Y122130D01*
X553402Y122118D01*
X553391Y122098D01*
X553382Y122071D01*
X553370Y122042D01*
X553359Y122007D01*
X553353Y121970D01*
X553350Y121929D01*
Y121926D01*
Y121923D01*
Y121914D01*
X553353Y121903D01*
X553356Y121874D01*
X553364Y121836D01*
X553382Y121795D01*
X553402Y121748D01*
X553434Y121702D01*
X553452Y121679D01*
X553475Y121658D01*
X553478D01*
X553481Y121652D01*
X553498Y121641D01*
X553527Y121623D01*
X553565Y121600D01*
X553615Y121580D01*
X553673Y121562D01*
X553740Y121551D01*
X553818Y121545D01*
X553839D01*
X553853Y121548D01*
X553871D01*
X553891Y121551D01*
X553938Y121559D01*
X553990Y121571D01*
X554045Y121591D01*
X554098Y121620D01*
X554147Y121658D01*
X554153Y121664D01*
X554168Y121679D01*
X554185Y121702D01*
X554208Y121734D01*
X554232Y121775D01*
X554249Y121821D01*
X554264Y121877D01*
X554269Y121938D01*
Y121941D01*
Y121946D01*
Y121955D01*
X554267Y121967D01*
X554264Y121996D01*
X554255Y122037D01*
X554240Y122080D01*
X554217Y122130D01*
X554188Y122176D01*
X554147Y122223D01*
X554141Y122229D01*
X554127Y122240D01*
X554101Y122261D01*
X554063Y122281D01*
X554019Y122301D01*
X553964Y122322D01*
X553903Y122333D01*
X553833Y122339D01*
D02*
G37*
G36*
X589996Y137138D02*
X589277D01*
Y136620D01*
Y136617D01*
Y136608D01*
Y136597D01*
X589280Y136576D01*
Y136556D01*
X589283Y136532D01*
X589288Y136477D01*
X589300Y136416D01*
X589318Y136355D01*
X589341Y136300D01*
X589355Y136274D01*
X589373Y136253D01*
X589379Y136247D01*
X589390Y136236D01*
X589414Y136218D01*
X589443Y136198D01*
X589480Y136178D01*
X589527Y136160D01*
X589579Y136148D01*
X589641Y136143D01*
X589661D01*
X589687Y136145D01*
X589716Y136151D01*
X589748Y136157D01*
X589786Y136169D01*
X589821Y136186D01*
X589856Y136207D01*
X589859Y136209D01*
X589870Y136218D01*
X589885Y136233D01*
X589905Y136250D01*
X589926Y136276D01*
X589943Y136305D01*
X589961Y136337D01*
X589975Y136375D01*
Y136378D01*
X589978Y136390D01*
X589981Y136407D01*
X589987Y136431D01*
X589990Y136466D01*
X589993Y136509D01*
X589996Y136562D01*
Y136626D01*
Y137138D01*
D02*
G37*
%LPD*%
D10*
X590976Y112760D02*
Y150240D01*
X699024Y114760D02*
Y152240D01*
X590500Y105000D02*
X590596Y104025D01*
X590881Y103087D01*
X591343Y102222D01*
X591964Y101464D01*
X592722Y100843D01*
X593587Y100381D01*
X594524Y100096D01*
X595500Y100000D01*
X695000D02*
X695975Y100096D01*
X696913Y100381D01*
X697778Y100843D01*
X698535Y101464D01*
X699157Y102222D01*
X699619Y103087D01*
X699904Y104025D01*
X700000Y105000D01*
Y165000D02*
X699904Y165975D01*
X699619Y166913D01*
X699157Y167778D01*
X698535Y168535D01*
X697778Y169157D01*
X696913Y169619D01*
X695975Y169904D01*
X695000Y170000D01*
X595500D02*
X594524Y169904D01*
X593587Y169619D01*
X592722Y169157D01*
X591964Y168535D01*
X591343Y167778D01*
X590881Y166913D01*
X590596Y165975D01*
X590500Y165000D01*
X595500Y100000D02*
X695000D01*
X700000Y105000D02*
Y165000D01*
X595500Y170000D02*
X695000D01*
X590500Y105000D02*
Y165000D01*
X590976Y117760D02*
X612157D01*
X612157Y112760D02*
Y117760D01*
X590976Y112760D02*
Y150240D01*
X612157Y130004D02*
Y132996D01*
X590976Y130004D02*
X612157D01*
X590976Y132996D02*
X612157D01*
Y145240D02*
Y150240D01*
X590976Y145240D02*
X612157D01*
X585976Y112760D02*
X612157D01*
X585976Y150240D02*
X612157D01*
X585976Y112760D02*
Y150240D01*
X555976Y144000D02*
X585976D01*
X555976Y119000D02*
Y144000D01*
Y119000D02*
X585976D01*
X677843Y147240D02*
X699024D01*
X677843Y147240D02*
Y152240D01*
X699024Y114760D02*
Y152240D01*
X677843Y132004D02*
Y134996D01*
X699024D01*
X677843Y132004D02*
X699024D01*
X677843Y114760D02*
Y119760D01*
X677843Y119760D02*
X699024D01*
X677843Y152240D02*
X704024D01*
X677843Y114760D02*
X704024D01*
Y152240D01*
Y121000D02*
X734024D01*
Y146000D01*
X704024D02*
X734024D01*
M02*
