M48
;Layer_Color=9474304
;FILE_FORMAT=2:5
INCH,LZ
;TYPE=PLATED
T1F00S00C0.01181
%
T01
X0602362Y0106299
X0614173
X0617Y01155
X0620079Y011811
X0621088Y0126097
X0617332
X0613576
X060982
X0606064
X0602308
X0598553
X0594797
X0595189Y0136903
X0598945
X0602701
X0606457
X0610213
X0613969
X0617725
X0621481
X0620079Y0141732
X0624Y0146
X06175Y0148
X0621Y0152
X0614173Y0153543
X0602362
X0608267Y0141732
X0624844Y0126097
X06286
X0632356
X0636112
X0639867
X0643623
X0647373Y0126316
X0651Y0127
X0655Y0126
X066Y01245
X0661777Y0128174
X0665503Y01277
X0669259
X0673015
X0676771
X0680527
X0684283
X0688039
X0691794
X0695549Y0127817
X0694657Y0139269
X0689748Y01393
X0685992
X0682236
X067848
X0674724
X0670969
X0667213
X0663457Y0139249
X06585Y0139
X0657903Y0144267
X0657025Y0147919
X0654469Y0150671
X0651814Y0153327
X0649139Y0155964
X0661417Y0153543
X0661Y01425
X0647097Y0142193
X0644741Y0145118
X0641289Y0146597
X064Y0143
X064026Y0136903
X0636504
X0632748
X0628992
X0625236
X063189Y0141732
X06455Y01385
X06485Y0136
X0643701Y011811
X0655512
X0667323
X0673Y0117
X0673228Y0106299
X0685039
X0661417
X0649606
X0637795
X0625984
X063189Y011811
X06735Y015
X0673228Y0153543
X0645657Y0157372
X0640693Y0157403
X06345Y01635
X06245Y01585
M30
