M48
;Layer_Color=9474304
;FILE_FORMAT=2:5
INCH,TZ
;TYPE=PLATED
T1F00S00C0.01181
%
T01
X602362Y106299
X614173
X617000Y115500
X620079Y118110
X621088Y126097
X617332
X613576
X609820
X606064
X602308
X598553
X594797
X595189Y136903
X598945
X602701
X606457
X610213
X613969
X617725
X621481
X620079Y141732
X624000Y146000
X617500Y148000
X621000Y152000
X614173Y153543
X602362
X608267Y141732
X624844Y126097
X628600
X632356
X636112
X639867
X643623
X647373Y126316
X651000Y127000
X655000Y126000
X660000Y124500
X661777Y128174
X665503Y127700
X669259
X673015
X676771
X680527
X684283
X688039
X691794
X695549Y127817
X694657Y139269
X689748Y139300
X685992
X682236
X678480
X674724
X670969
X667213
X663457Y139249
X658500Y139000
X657903Y144267
X657025Y147919
X654469Y150671
X651814Y153327
X649139Y155964
X661417Y153543
X661000Y142500
X647097Y142193
X644741Y145118
X641289Y146597
X640000Y143000
X640260Y136903
X636504
X632748
X628992
X625236
X631890Y141732
X645500Y138500
X648500Y136000
X643701Y118110
X655512
X667323
X673000Y117000
X673228Y106299
X685039
X661417
X649606
X637795
X625984
X631890Y118110
X673500Y150000
X673228Y153543
X645657Y157372
X640693Y157403
X634500Y163500
X624500Y158500
M30
